<svg width="1440" height="981" viewBox="0 0 1440 981" fill="none" xmlns="http://www.w3.org/2000/svg">
<rect width="1440" height="981" fill="#FCFAED"/>
<g opacity="0.3">
<path d="M1265.8 58.4942L1267.69 55.2407C1269.59 52.0166 1270.58 48.3496 1270.58 44.6155C1270.58 40.8815 1269.59 37.2145 1267.69 33.9904L1265.8 30.8225L1263.89 33.9904C1262 37.2145 1261 40.8815 1261 44.6155C1261 48.3496 1262 52.0166 1263.89 55.2407L1265.8 58.4942ZM1265.8 42.0556C1266.31 42.0556 1266.81 42.2062 1267.23 42.4884C1267.66 42.7707 1267.99 43.1718 1268.19 43.6412C1268.38 44.1105 1268.43 44.627 1268.33 45.1252C1268.23 45.6234 1267.99 46.0811 1267.63 46.4403C1267.26 46.7995 1266.81 47.0442 1266.3 47.1433C1265.8 47.2424 1265.28 47.1915 1264.81 46.9971C1264.34 46.8027 1263.94 46.4735 1263.65 46.0511C1263.37 45.6287 1263.22 45.1321 1263.22 44.6241C1263.22 43.9429 1263.49 43.2896 1263.98 42.8079C1264.46 42.3262 1265.12 42.0556 1265.8 42.0556Z" fill="#DD7631"/>
<path d="M1403.23 33.9904L1401.32 30.8225L1399.41 34.0589C1397.53 37.2859 1396.53 40.9517 1396.53 44.684C1396.53 48.4163 1397.53 52.0822 1399.41 55.3092L1401.32 58.5627L1403.23 55.3092C1405.14 52.077 1406.14 48.3973 1406.14 44.6498C1406.14 40.9022 1405.14 37.2225 1403.23 33.9904ZM1401.32 47.1755C1400.81 47.1755 1400.31 47.0244 1399.88 46.7414C1399.46 46.4584 1399.13 46.0563 1398.93 45.5859C1398.74 45.1156 1398.69 44.5983 1398.79 44.0996C1398.89 43.6008 1399.14 43.1432 1399.5 42.7847C1399.86 42.4262 1400.32 42.1829 1400.83 42.0857C1401.33 41.9886 1401.85 42.0419 1402.32 42.2389C1402.79 42.4359 1403.19 42.7678 1403.47 43.1925C1403.76 43.6171 1403.9 44.1154 1403.9 44.6241C1403.9 45.3023 1403.62 45.9513 1403.14 46.4293C1402.65 46.9073 1402 47.1755 1401.32 47.1755Z" fill="#DD7631"/>
<path d="M1420.16 64.7442L1418.27 61.5078L1416.36 64.7442C1414.47 67.9683 1413.47 71.6352 1413.47 75.3693C1413.47 79.1034 1414.47 82.7704 1416.36 85.9945L1418.27 89.2309L1420.16 85.9945C1422.05 82.7704 1423.05 79.1034 1423.05 75.3693C1423.05 71.6352 1422.05 67.9683 1420.16 64.7442ZM1418.27 77.9293C1417.76 77.9327 1417.26 77.7854 1416.83 77.5059C1416.41 77.2265 1416.07 76.8276 1415.87 76.3595C1415.67 75.8915 1415.62 75.3754 1415.72 74.8765C1415.81 74.3776 1416.06 73.9184 1416.41 73.5568C1416.77 73.1952 1417.23 72.9475 1417.73 72.8451C1418.23 72.7426 1418.75 72.79 1419.22 72.9813C1419.7 73.1726 1420.1 73.4991 1420.39 73.9196C1420.67 74.3401 1420.83 74.8357 1420.83 75.3437C1420.83 75.681 1420.77 76.0154 1420.64 76.3279C1420.51 76.6404 1420.33 76.9248 1420.09 77.1649C1419.85 77.405 1419.57 77.5961 1419.25 77.7273C1418.94 77.8584 1418.61 77.9271 1418.27 77.9293Z" fill="#D8C593"/>
<path d="M1299.68 0L1297.77 3.25348C1295.88 6.47441 1294.88 10.1386 1294.88 13.8701C1294.88 17.6015 1295.88 21.2658 1297.77 24.4867L1299.68 27.7402L1301.59 24.4867C1303.47 21.2629 1304.47 17.5997 1304.47 13.8701C1304.47 10.1404 1303.47 6.47732 1301.59 3.25348L1299.68 0ZM1299.68 16.4386C1299.17 16.4319 1298.68 16.2755 1298.26 15.9892C1297.84 15.7029 1297.51 15.2994 1297.32 14.8295C1297.13 14.3596 1297.08 13.8443 1297.19 13.3483C1297.29 12.8524 1297.54 12.3979 1297.9 12.0421C1298.26 11.6863 1298.72 11.4451 1299.22 11.3487C1299.72 11.2523 1300.24 11.3052 1300.71 11.5005C1301.18 11.6959 1301.58 12.0251 1301.86 12.4467C1302.14 12.8683 1302.3 13.3635 1302.3 13.8701C1302.3 14.2103 1302.23 14.5471 1302.1 14.861C1301.96 15.1749 1301.77 15.4596 1301.53 15.6985C1301.28 15.9375 1301 16.126 1300.68 16.253C1300.36 16.3801 1300.02 16.4432 1299.68 16.4386Z" fill="#708160"/>
<path d="M1418.27 92.2446L1416.36 95.4981C1414.47 98.7222 1413.47 102.389 1413.47 106.123C1413.47 109.857 1414.47 113.524 1416.36 116.748L1418.27 119.985L1420.16 116.748C1422.05 113.524 1423.05 109.857 1423.05 106.123C1423.05 102.389 1422.05 98.7222 1420.16 95.4981L1418.27 92.2446ZM1418.27 108.683C1417.75 108.687 1417.25 108.537 1416.82 108.255C1416.4 107.972 1416.06 107.569 1415.87 107.097C1415.67 106.625 1415.62 106.106 1415.72 105.605C1415.82 105.104 1416.07 104.645 1416.44 104.286C1416.8 103.928 1417.27 103.685 1417.77 103.591C1418.28 103.496 1418.8 103.553 1419.27 103.755C1419.74 103.957 1420.14 104.294 1420.42 104.724C1420.7 105.153 1420.84 105.655 1420.83 106.166C1420.82 106.835 1420.54 107.473 1420.06 107.943C1419.59 108.413 1418.94 108.679 1418.27 108.683Z" fill="#DD7631"/>
<path d="M1282.73 30.8225L1280.82 34.0589C1278.94 37.2859 1277.95 40.9517 1277.95 44.684C1277.95 48.4163 1278.94 52.0822 1280.82 55.3092L1282.73 58.5627L1284.64 55.3092C1286.53 52.0851 1287.53 48.4181 1287.53 44.684C1287.53 40.9499 1286.53 37.283 1284.64 34.0589L1282.73 30.8225ZM1282.73 47.244C1282.22 47.244 1281.72 47.0929 1281.3 46.8099C1280.87 46.5269 1280.54 46.1248 1280.35 45.6544C1280.15 45.1841 1280.1 44.6668 1280.2 44.168C1280.3 43.6693 1280.55 43.2117 1280.91 42.8532C1281.28 42.4947 1281.74 42.2514 1282.24 42.1542C1282.74 42.0571 1283.26 42.1104 1283.73 42.3074C1284.2 42.5044 1284.6 42.8363 1284.89 43.261C1285.17 43.6856 1285.32 44.1839 1285.31 44.6926C1285.29 45.3589 1285.01 45.9904 1284.53 46.4537C1284.05 46.9171 1283.4 47.1759 1282.73 47.1755V47.244Z" fill="#708160"/>
<path d="M1435.2 61.5078L1433.31 64.7442C1431.41 67.9683 1430.42 71.6352 1430.42 75.3693C1430.42 79.1034 1431.41 82.7704 1433.31 85.9945L1435.2 89.2309L1437.11 85.9945C1439 82.7704 1440 79.1034 1440 75.3693C1440 71.6352 1439 67.9683 1437.11 64.7442L1435.2 61.5078ZM1435.2 77.9293C1434.69 77.9293 1434.19 77.7782 1433.76 77.4952C1433.34 77.2122 1433.01 76.8101 1432.81 76.3397C1432.62 75.8694 1432.57 75.3521 1432.67 74.8534C1432.77 74.3546 1433.02 73.897 1433.38 73.5385C1433.74 73.18 1434.2 72.9367 1434.71 72.8395C1435.21 72.7424 1435.73 72.7957 1436.2 72.9927C1436.67 73.1897 1437.07 73.5216 1437.35 73.9463C1437.64 74.3709 1437.78 74.8692 1437.78 75.3779C1437.78 75.7144 1437.71 76.0476 1437.58 76.3583C1437.45 76.6689 1437.26 76.951 1437.02 77.1881C1436.78 77.4252 1436.5 77.6128 1436.19 77.74C1435.87 77.8672 1435.54 77.9316 1435.2 77.9293Z" fill="#DD7631"/>
<path d="M1267.69 64.7442L1265.8 61.5078L1263.89 64.7442C1263.49 65.4309 1263.14 66.1398 1262.82 66.8675C1265.07 69.9842 1267.67 72.8288 1270.58 75.3437C1270.58 71.6185 1269.58 67.9614 1267.69 64.7442Z" fill="#708160"/>
<path d="M1420.16 126.252L1418.27 122.999L1416.36 126.252C1414.47 129.473 1413.47 133.137 1413.47 136.869C1413.47 140.6 1414.47 144.264 1416.36 147.485L1418.08 150.55L1418.47 150.259L1420.09 147.485C1422 144.27 1423.01 140.609 1423.02 136.878C1423.03 133.146 1422.04 129.479 1420.16 126.252ZM1418.27 139.437C1417.76 139.441 1417.26 139.293 1416.83 139.013C1416.4 138.732 1416.07 138.333 1415.87 137.863C1415.67 137.394 1415.62 136.877 1415.72 136.378C1415.82 135.879 1416.06 135.419 1416.42 135.059C1416.78 134.698 1417.24 134.451 1417.74 134.351C1418.24 134.25 1418.76 134.3 1419.23 134.494C1419.71 134.688 1420.11 135.017 1420.4 135.44C1420.68 135.863 1420.83 136.36 1420.83 136.869C1420.83 137.547 1420.56 138.198 1420.08 138.679C1419.6 139.16 1418.95 139.433 1418.27 139.437Z" fill="#708160"/>
<path d="M1284.64 64.7442L1282.73 61.5078L1280.82 64.7442C1278.01 69.5747 1277.22 75.3166 1278.64 80.7205L1279.19 80.9773C1283.16 82.6897 1284.62 82.3986 1286.55 81.5766C1287.42 78.7922 1287.7 75.8584 1287.37 72.9609C1287.04 70.0634 1286.11 67.2655 1284.64 64.7442ZM1282.73 77.9293C1282.22 77.9293 1281.72 77.7791 1281.3 77.4976C1280.88 77.2161 1280.55 76.816 1280.35 76.3476C1280.15 75.8793 1280.1 75.3637 1280.2 74.8659C1280.3 74.3682 1280.54 73.9105 1280.9 73.5506C1281.26 73.1907 1281.72 72.9447 1282.22 72.8437C1282.72 72.7427 1283.24 72.7911 1283.71 72.9829C1284.18 73.1747 1284.58 73.5012 1284.87 73.9214C1285.16 74.3415 1285.31 74.8364 1285.31 75.3437C1285.32 75.6824 1285.25 76.0182 1285.12 76.3318C1284.99 76.6455 1284.8 76.9306 1284.56 77.171C1284.32 77.4113 1284.04 77.602 1283.72 77.7322C1283.41 77.8623 1283.07 77.9293 1282.73 77.9293Z" fill="#D8C593"/>
<path d="M1401.32 122.999L1399.41 126.252C1397.52 129.476 1396.53 133.139 1396.53 136.869C1396.53 140.598 1397.52 144.261 1399.41 147.485L1401.32 150.687L1403.23 147.434C1405.12 144.213 1406.12 140.549 1406.12 136.817C1406.12 133.086 1405.12 129.422 1403.23 126.201L1401.32 122.999ZM1401.32 139.437C1400.81 139.437 1400.31 139.287 1399.89 139.004C1399.46 138.722 1399.13 138.321 1398.93 137.852C1398.74 137.382 1398.69 136.866 1398.79 136.368C1398.89 135.869 1399.13 135.412 1399.49 135.052C1399.86 134.693 1400.32 134.449 1400.82 134.349C1401.32 134.25 1401.84 134.301 1402.31 134.496C1402.78 134.69 1403.18 135.019 1403.47 135.442C1403.75 135.864 1403.9 136.361 1403.9 136.869C1403.9 137.55 1403.63 138.203 1403.14 138.685C1402.66 139.167 1402 139.437 1401.32 139.437Z" fill="#DD7631"/>
<path d="M1403.23 64.7442L1401.32 61.5078L1399.41 64.7442C1397.53 67.9712 1396.53 71.637 1396.53 75.3693C1396.53 79.1017 1397.53 82.7675 1399.41 85.9945L1401.32 89.2309L1403.23 85.9945C1405.12 82.7704 1406.12 79.1034 1406.12 75.3693C1406.12 71.6352 1405.12 67.9683 1403.23 64.7442ZM1401.32 77.9293C1400.81 77.9293 1400.31 77.7791 1399.89 77.4976C1399.46 77.2161 1399.13 76.816 1398.94 76.3476C1398.74 75.8793 1398.69 75.3637 1398.79 74.8659C1398.89 74.3682 1399.13 73.9105 1399.49 73.5506C1399.85 73.1907 1400.31 72.9447 1400.81 72.8437C1401.31 72.7427 1401.82 72.7911 1402.3 72.9829C1402.77 73.1747 1403.17 73.5012 1403.46 73.9214C1403.74 74.3415 1403.9 74.8364 1403.9 75.3437C1403.9 75.6824 1403.84 76.0182 1403.71 76.3318C1403.58 76.6455 1403.39 76.9306 1403.15 77.171C1402.91 77.4113 1402.63 77.602 1402.31 77.7322C1402 77.8623 1401.66 77.9293 1401.32 77.9293Z" fill="#708160"/>
<path d="M1400.06 2.14038L1399.41 3.25341C1397.52 6.47726 1396.53 10.1404 1396.53 13.87C1396.53 17.5997 1397.52 21.2628 1399.41 24.4866L1401.32 27.7401L1403.23 24.4866C1405.19 21.1386 1406.18 17.3155 1406.09 13.4419C1403.45 8.42473 1401.08 3.98973 1400.37 2.61984C1400.29 2.45049 1400.18 2.28992 1400.06 2.14038ZM1403.9 13.87C1403.9 14.378 1403.75 14.8746 1403.47 15.297C1403.18 15.7194 1402.78 16.0486 1402.31 16.243C1401.84 16.4374 1401.32 16.4883 1400.82 16.3892C1400.32 16.2901 1399.86 16.0455 1399.49 15.6862C1399.13 15.327 1398.89 14.8694 1398.79 14.3711C1398.69 13.8729 1398.74 13.3564 1398.93 12.8871C1399.13 12.4177 1399.46 12.0166 1399.89 11.7344C1400.31 11.4521 1400.81 11.3015 1401.32 11.3015C1402 11.3015 1402.66 11.5721 1403.14 12.0538C1403.63 12.5355 1403.9 13.1888 1403.9 13.87Z" fill="#708160"/>
<path d="M1280.82 24.4866L1282.73 27.7401L1284.64 24.4866C1286.53 21.2656 1287.53 17.6014 1287.53 13.87C1287.53 10.1385 1286.53 6.47429 1284.64 3.25336L1282.92 0.308105C1282.46 1.75304 1281.6 3.04045 1280.44 4.02392C1278.75 7.18446 1277.9 10.7231 1277.96 14.3042C1278.03 17.8853 1279.01 21.3902 1280.82 24.4866ZM1282.73 11.3014C1283.24 11.3014 1283.74 11.4521 1284.17 11.7343C1284.59 12.0165 1284.92 12.4177 1285.12 12.887C1285.31 13.3564 1285.36 13.8728 1285.26 14.3711C1285.16 14.8693 1284.92 15.327 1284.56 15.6862C1284.2 16.0454 1283.74 16.29 1283.24 16.3891C1282.73 16.4883 1282.22 16.4374 1281.74 16.243C1281.27 16.0486 1280.87 15.7194 1280.59 15.297C1280.3 14.8746 1280.15 14.378 1280.15 13.87C1280.15 13.1888 1280.42 12.5354 1280.91 12.0537C1281.39 11.572 1282.05 11.3014 1282.73 11.3014Z" fill="#DD7631"/>
<path d="M1403.23 95.4981L1401.32 92.2446L1399.41 95.4981C1397.53 98.7251 1396.53 102.391 1396.53 106.123C1396.53 109.856 1397.53 113.521 1399.41 116.748L1401.32 119.985L1403.23 116.748C1405.12 113.524 1406.12 109.857 1406.12 106.123C1406.12 102.389 1405.12 98.7222 1403.23 95.4981ZM1401.32 108.683C1400.81 108.683 1400.31 108.533 1399.89 108.25C1399.46 107.968 1399.13 107.567 1398.93 107.098C1398.74 106.628 1398.69 106.112 1398.79 105.614C1398.89 105.115 1399.13 104.658 1399.49 104.298C1399.86 103.939 1400.32 103.695 1400.82 103.596C1401.32 103.496 1401.84 103.547 1402.31 103.742C1402.78 103.936 1403.18 104.265 1403.47 104.688C1403.75 105.11 1403.9 105.607 1403.9 106.115C1403.9 106.796 1403.63 107.449 1403.14 107.931C1402.66 108.413 1402 108.683 1401.32 108.683Z" fill="#D8C593"/>
<path d="M1386.28 95.4981L1384.39 92.2446L1382.48 95.4981C1380.59 98.7222 1379.59 102.389 1379.59 106.123C1379.59 109.857 1380.59 113.524 1382.48 116.748L1384.39 119.985L1386.28 116.748C1388.17 113.524 1389.17 109.857 1389.17 106.123C1389.17 102.389 1388.17 98.7222 1386.28 95.4981ZM1384.39 108.683C1383.87 108.687 1383.37 108.537 1382.94 108.255C1382.52 107.972 1382.18 107.569 1381.99 107.097C1381.79 106.625 1381.74 106.106 1381.84 105.605C1381.94 105.104 1382.19 104.645 1382.56 104.286C1382.92 103.928 1383.39 103.685 1383.89 103.591C1384.4 103.496 1384.92 103.553 1385.39 103.755C1385.86 103.957 1386.26 104.294 1386.54 104.724C1386.82 105.153 1386.96 105.655 1386.95 106.166C1386.94 106.835 1386.66 107.473 1386.18 107.943C1385.71 108.413 1385.06 108.679 1384.39 108.683Z" fill="#DD7631"/>
<path d="M1350.47 150.687L1352.38 147.434C1354.28 144.213 1355.27 140.549 1355.27 136.817C1355.27 133.086 1354.28 129.422 1352.38 126.201L1350.47 122.999L1348.58 126.252C1347.35 128.375 1346.5 130.691 1346.05 133.101C1346.05 133.495 1345.93 133.872 1345.86 134.249C1345.3 138.816 1346.25 143.442 1348.58 147.417L1350.47 150.687ZM1350.47 134.249C1350.99 134.245 1351.49 134.393 1351.91 134.673C1352.34 134.953 1352.67 135.353 1352.87 135.822C1353.07 136.291 1353.12 136.808 1353.02 137.308C1352.93 137.807 1352.68 138.266 1352.32 138.627C1351.96 138.988 1351.5 139.235 1351 139.335C1350.5 139.436 1349.98 139.386 1349.51 139.192C1349.03 138.998 1348.63 138.669 1348.35 138.246C1348.06 137.823 1347.91 137.326 1347.91 136.817C1347.92 136.148 1348.2 135.51 1348.68 135.04C1349.16 134.57 1349.8 134.304 1350.47 134.3V134.249Z" fill="#D8C593"/>
<path d="M1350.47 181.51L1352.38 178.256C1354.28 175.035 1355.28 171.371 1355.28 167.64C1355.28 163.908 1354.28 160.244 1352.38 157.023L1350.47 153.752L1348.58 157.006C1347.35 159.127 1346.49 161.444 1346.05 163.855C1346.05 164.249 1345.93 164.643 1345.86 165.02C1345.3 169.587 1346.25 174.213 1348.58 178.188L1350.47 181.51ZM1350.47 165.071C1350.99 165.068 1351.49 165.215 1351.91 165.496C1352.34 165.776 1352.67 166.176 1352.87 166.645C1353.07 167.114 1353.12 167.631 1353.03 168.13C1352.93 168.63 1352.68 169.089 1352.32 169.45C1351.96 169.811 1351.5 170.057 1351 170.158C1350.5 170.258 1349.98 170.208 1349.51 170.014C1349.04 169.82 1348.63 169.491 1348.35 169.068C1348.06 168.646 1347.91 168.148 1347.91 167.64C1347.91 167.302 1347.97 166.968 1348.1 166.655C1348.23 166.343 1348.42 166.058 1348.65 165.818C1348.89 165.578 1349.18 165.387 1349.49 165.256C1349.8 165.125 1350.14 165.056 1350.47 165.054V165.071Z" fill="#DD7631"/>
<path d="M1401.32 181.51L1403.23 178.256C1405.11 175.032 1406.11 171.369 1406.11 167.64C1406.11 163.91 1405.11 160.247 1403.23 157.023L1401.32 153.77L1399.41 157.023C1398.17 159.141 1397.32 161.46 1396.9 163.872C1396.9 164.266 1396.78 164.66 1396.69 165.037C1396.13 169.604 1397.08 174.23 1399.41 178.205L1401.32 181.51ZM1401.32 165.071C1401.83 165.071 1402.33 165.222 1402.75 165.504C1403.18 165.786 1403.51 166.187 1403.7 166.657C1403.9 167.126 1403.95 167.642 1403.85 168.141C1403.75 168.639 1403.51 169.097 1403.14 169.456C1402.78 169.815 1402.32 170.06 1401.82 170.159C1401.32 170.258 1400.8 170.207 1400.33 170.013C1399.86 169.818 1399.46 169.489 1399.17 169.067C1398.89 168.644 1398.74 168.148 1398.74 167.64C1398.74 167.301 1398.8 166.965 1398.93 166.651C1399.06 166.338 1399.25 166.053 1399.49 165.812C1399.73 165.572 1400.01 165.381 1400.33 165.251C1400.64 165.121 1400.98 165.054 1401.32 165.054V165.071Z" fill="#708160"/>
<path d="M1386.28 33.9904L1384.39 30.8225L1382.48 33.9904C1380.59 37.2145 1379.59 40.8815 1379.59 44.6155C1379.59 48.3496 1380.59 52.0166 1382.48 55.2407L1384.39 58.4942L1386.28 55.2407C1388.17 52.0166 1389.17 48.3496 1389.17 44.6155C1389.17 40.8815 1388.17 37.2145 1386.28 33.9904ZM1384.39 47.1755C1383.88 47.1789 1383.37 47.0307 1382.95 46.7498C1382.52 46.4689 1382.19 46.0679 1381.99 45.5978C1381.79 45.1278 1381.74 44.61 1381.84 44.1101C1381.94 43.6103 1382.18 43.1511 1382.55 42.7908C1382.91 42.4306 1383.37 42.1856 1383.87 42.087C1384.37 41.9885 1384.89 42.0408 1385.37 42.2373C1385.84 42.4338 1386.24 42.7657 1386.52 43.1907C1386.81 43.6157 1386.96 44.1147 1386.95 44.6241C1386.95 45.2994 1386.68 45.9458 1386.2 46.4233C1385.72 46.9008 1385.07 47.171 1384.39 47.1755Z" fill="#708160"/>
<path d="M1386.28 3.25348L1384.39 0L1382.48 3.25348C1380.59 6.47441 1379.59 10.1386 1379.59 13.8701C1379.59 17.6015 1380.59 21.2658 1382.48 24.4867L1384.39 27.7402L1386.28 24.4867C1388.17 21.2658 1389.17 17.6015 1389.17 13.8701C1389.17 10.1386 1388.17 6.47441 1386.28 3.25348ZM1384.39 16.4386C1383.88 16.442 1383.38 16.2943 1382.95 16.0141C1382.52 15.7339 1382.19 15.334 1381.99 14.8649C1381.79 14.3959 1381.74 13.8789 1381.84 13.3796C1381.94 12.8802 1382.18 12.4209 1382.54 12.06C1382.9 11.6991 1383.36 11.4527 1383.86 11.3522C1384.36 11.2517 1384.88 11.3016 1385.35 11.4955C1385.83 11.6894 1386.23 12.0186 1386.52 12.4413C1386.8 12.8641 1386.95 13.3614 1386.95 13.8701C1386.95 14.5483 1386.68 15.1991 1386.2 15.6803C1385.72 16.1615 1385.07 16.4341 1384.39 16.4386Z" fill="#DD7631"/>
<path d="M1352.4 95.4981L1350.47 92.2446L1348.58 95.4981C1346.69 98.7222 1345.69 102.389 1345.69 106.123C1345.69 109.857 1346.69 113.524 1348.58 116.748L1350.47 119.985L1352.38 116.748C1354.28 113.526 1355.28 109.86 1355.28 106.126C1355.29 102.392 1354.29 98.7237 1352.4 95.4981ZM1350.47 108.683C1349.96 108.683 1349.46 108.533 1349.04 108.25C1348.62 107.968 1348.28 107.567 1348.09 107.098C1347.89 106.628 1347.84 106.112 1347.94 105.614C1348.04 105.115 1348.29 104.658 1348.65 104.298C1349.01 103.939 1349.47 103.695 1349.97 103.596C1350.47 103.496 1350.99 103.547 1351.46 103.742C1351.93 103.936 1352.34 104.265 1352.62 104.688C1352.9 105.11 1353.06 105.607 1353.06 106.115C1353.06 106.796 1352.78 107.449 1352.3 107.931C1351.82 108.413 1351.16 108.683 1350.47 108.683Z" fill="#708160"/>
<path d="M1335.47 95.4981L1333.58 92.2446L1331.67 95.4981C1329.77 98.7222 1328.78 102.389 1328.78 106.123C1328.78 109.857 1329.77 113.524 1331.67 116.748L1333.58 119.985L1335.47 116.748C1337.36 113.524 1338.36 109.857 1338.36 106.123C1338.36 102.389 1337.36 98.7222 1335.47 95.4981ZM1333.58 108.683C1333.06 108.687 1332.56 108.537 1332.13 108.255C1331.71 107.972 1331.37 107.569 1331.18 107.097C1330.98 106.625 1330.93 106.106 1331.03 105.605C1331.13 105.104 1331.38 104.645 1331.75 104.286C1332.11 103.928 1332.58 103.685 1333.08 103.591C1333.59 103.496 1334.11 103.553 1334.58 103.755C1335.05 103.957 1335.45 104.294 1335.73 104.724C1336.01 105.153 1336.15 105.655 1336.14 106.166C1336.13 106.835 1335.85 107.473 1335.37 107.943C1334.89 108.413 1334.25 108.679 1333.58 108.683Z" fill="#DD7631"/>
<path d="M1384.39 181.51L1386.28 178.256C1388.17 175.035 1389.17 171.371 1389.17 167.64C1389.17 163.908 1388.17 160.244 1386.28 157.023L1384.39 153.77L1382.48 157.023C1380.59 160.244 1379.59 163.908 1379.59 167.64C1379.59 171.371 1380.59 175.035 1382.48 178.256L1384.39 181.51ZM1384.39 165.071C1384.9 165.071 1385.4 165.222 1385.82 165.504C1386.25 165.786 1386.58 166.187 1386.77 166.657C1386.97 167.126 1387.02 167.642 1386.92 168.141C1386.82 168.639 1386.57 169.097 1386.21 169.456C1385.85 169.815 1385.39 170.06 1384.89 170.159C1384.39 170.258 1383.87 170.207 1383.4 170.013C1382.93 169.818 1382.53 169.489 1382.24 169.067C1381.96 168.644 1381.81 168.148 1381.81 167.64C1381.8 167.301 1381.87 166.965 1382 166.651C1382.13 166.338 1382.32 166.053 1382.56 165.812C1382.8 165.572 1383.08 165.381 1383.4 165.251C1383.71 165.121 1384.05 165.054 1384.39 165.054V165.071Z" fill="#D8C593"/>
<path d="M1316.61 30.8225L1314.72 34.0589C1312.83 37.283 1311.83 40.9499 1311.83 44.684C1311.83 48.4181 1312.83 52.0851 1314.72 55.3092L1316.61 58.5627L1318.52 55.3092C1320.41 52.0851 1321.41 48.4181 1321.41 44.684C1321.41 40.9499 1320.41 37.283 1318.52 34.0589L1316.61 30.8225ZM1316.61 47.244C1316.1 47.244 1315.6 47.0929 1315.18 46.8099C1314.75 46.5269 1314.42 46.1248 1314.23 45.6544C1314.03 45.1841 1313.98 44.6668 1314.08 44.168C1314.18 43.6693 1314.43 43.2117 1314.79 42.8532C1315.16 42.4947 1315.62 42.2514 1316.12 42.1542C1316.62 42.0571 1317.14 42.1104 1317.61 42.3074C1318.08 42.5044 1318.48 42.8363 1318.77 43.261C1319.05 43.6856 1319.2 44.1839 1319.19 44.6926C1319.17 45.3603 1318.89 45.9944 1318.41 46.4586C1317.93 46.9228 1317.28 47.1802 1316.61 47.1755V47.244Z" fill="#DD7631"/>
<path d="M1318.52 3.25348L1316.61 0L1314.72 3.25348C1312.83 6.47441 1311.83 10.1386 1311.83 13.8701C1311.83 17.6015 1312.83 21.2658 1314.72 24.4867L1316.61 27.7402L1318.52 24.4867C1320.41 21.2658 1321.41 17.6015 1321.41 13.8701C1321.41 10.1386 1320.41 6.47441 1318.52 3.25348ZM1316.61 16.4386C1316.1 16.4386 1315.6 16.288 1315.18 16.0057C1314.75 15.7235 1314.42 15.3224 1314.23 14.853C1314.03 14.3837 1313.98 13.8672 1314.08 13.369C1314.18 12.8707 1314.43 12.4131 1314.79 12.0539C1315.15 11.6946 1315.61 11.45 1316.11 11.3509C1316.61 11.2518 1317.13 11.3027 1317.6 11.4971C1318.07 11.6915 1318.47 12.0207 1318.76 12.4431C1319.04 12.8655 1319.19 13.3621 1319.19 13.8701C1319.19 14.5513 1318.92 15.2046 1318.44 15.6863C1317.95 16.168 1317.3 16.4386 1316.61 16.4386Z" fill="#D8C593"/>
<path d="M1335.47 3.25348L1333.56 0L1331.65 3.25348C1329.76 6.47441 1328.76 10.1386 1328.76 13.8701C1328.76 17.6015 1329.76 21.2658 1331.65 24.4867L1333.56 27.7402L1335.47 24.4867C1337.35 21.2629 1338.35 17.5997 1338.35 13.8701C1338.35 10.1404 1337.35 6.47732 1335.47 3.25348ZM1333.56 16.4386C1333.05 16.4386 1332.55 16.288 1332.13 16.0057C1331.7 15.7235 1331.37 15.3224 1331.18 14.853C1330.98 14.3837 1330.93 13.8672 1331.03 13.369C1331.13 12.8707 1331.37 12.4131 1331.74 12.0539C1332.1 11.6946 1332.56 11.45 1333.06 11.3509C1333.56 11.2518 1334.08 11.3027 1334.55 11.4971C1335.02 11.6915 1335.42 12.0207 1335.71 12.4431C1335.99 12.8655 1336.14 13.3621 1336.14 13.8701C1336.14 14.5513 1335.87 15.2046 1335.39 15.6863C1334.9 16.168 1334.24 16.4386 1333.56 16.4386Z" fill="#DD7631"/>
<path d="M1348.6 24.4867L1350.47 27.7402L1352.38 24.4867C1354.28 21.2657 1355.28 17.6015 1355.28 13.8701C1355.28 10.1386 1354.28 6.47438 1352.38 3.25345L1350.65 0.256828L1350.47 0.136963L1348.6 3.25345C1346.71 6.47438 1345.71 10.1386 1345.71 13.8701C1345.71 17.6015 1346.71 21.2657 1348.6 24.4867ZM1350.47 11.3015C1350.99 11.2981 1351.49 11.4459 1351.91 11.7261C1352.34 12.0062 1352.67 12.4062 1352.87 12.8752C1353.07 13.3442 1353.12 13.8612 1353.03 14.3606C1352.93 14.8599 1352.68 15.3192 1352.32 15.6801C1351.96 16.0411 1351.5 16.2874 1351 16.3879C1350.5 16.4884 1349.98 16.4386 1349.51 16.2447C1349.04 16.0508 1348.63 15.7216 1348.35 15.2988C1348.06 14.8761 1347.91 14.3788 1347.91 13.8701C1347.91 13.1918 1348.18 12.5411 1348.66 12.0599C1349.14 11.5787 1349.79 11.306 1350.47 11.3015Z" fill="#708160"/>
<path d="M1333.56 30.8225L1331.65 34.0589C1329.76 37.283 1328.76 40.9499 1328.76 44.684C1328.76 48.4181 1329.76 52.0851 1331.65 55.3092L1333.56 58.5627L1335.47 55.3092C1337.35 52.0822 1338.35 48.4163 1338.35 44.684C1338.35 40.9517 1337.35 37.2859 1335.47 34.0589L1333.56 30.8225ZM1333.56 47.244C1333.05 47.244 1332.55 47.0929 1332.12 46.8099C1331.7 46.5269 1331.37 46.1248 1331.17 45.6544C1330.98 45.1841 1330.93 44.6668 1331.03 44.168C1331.13 43.6693 1331.38 43.2117 1331.74 42.8532C1332.1 42.4947 1332.57 42.2514 1333.07 42.1542C1333.57 42.0571 1334.09 42.1104 1334.56 42.3074C1335.03 42.5044 1335.43 42.8363 1335.71 43.261C1336 43.6856 1336.14 44.1839 1336.14 44.6926C1336.12 45.3589 1335.84 45.9904 1335.36 46.4537C1334.87 46.9171 1334.23 47.1759 1333.56 47.1755V47.244Z" fill="#708160"/>
<path d="M1299.68 58.4942L1301.59 55.2407C1303.47 52.0137 1304.47 48.3479 1304.47 44.6155C1304.47 40.8832 1303.47 37.2174 1301.59 33.9904L1299.68 30.8225L1297.77 34.0589C1295.88 37.283 1294.88 40.9499 1294.88 44.684C1294.88 48.4181 1295.88 52.0851 1297.77 55.3092L1299.68 58.4942ZM1299.68 42.0556C1300.19 42.0556 1300.69 42.2062 1301.11 42.4884C1301.54 42.7707 1301.87 43.1718 1302.06 43.6412C1302.26 44.1105 1302.31 44.627 1302.21 45.1252C1302.11 45.6234 1301.87 46.0811 1301.51 46.4403C1301.14 46.7995 1300.68 47.0442 1300.18 47.1433C1299.68 47.2424 1299.16 47.1915 1298.69 46.9971C1298.22 46.8027 1297.82 46.4735 1297.53 46.0511C1297.25 45.6287 1297.1 45.1321 1297.1 44.6241C1297.1 43.9429 1297.37 43.2896 1297.86 42.8079C1298.34 42.3262 1299 42.0556 1299.68 42.0556Z" fill="#D8C593"/>
<path d="M1318.95 85.1383C1320.62 81.981 1321.46 78.4532 1321.38 74.886C1321.31 71.3187 1320.32 67.829 1318.52 64.7442L1316.61 61.5078L1314.72 64.7442C1312.92 67.8307 1311.94 71.3236 1311.87 74.8924C1311.8 78.4612 1312.65 81.9877 1314.34 85.1383H1318.95ZM1316.61 72.8094C1317.12 72.806 1317.63 72.9547 1318.05 73.2364C1318.48 73.5181 1318.81 73.9201 1319.01 74.3911C1319.21 74.8621 1319.26 75.3809 1319.16 75.8812C1319.06 76.3815 1318.81 76.8406 1318.45 77.2002C1318.08 77.5597 1317.62 77.8033 1317.12 77.8999C1316.61 77.9965 1316.09 77.9417 1315.62 77.7426C1315.15 77.5434 1314.75 77.2089 1314.47 76.7816C1314.19 76.3544 1314.04 75.8538 1314.05 75.3437C1314.06 74.6713 1314.33 74.0293 1314.81 73.5555C1315.29 73.0817 1315.94 72.8138 1316.61 72.8094Z" fill="#708160"/>
<path d="M1302 85.1383C1303.68 81.9834 1304.52 78.4559 1304.45 74.8881C1304.38 71.3202 1303.39 67.8294 1301.59 64.7442L1299.68 61.5078L1297.77 64.7442C1295.97 67.829 1294.98 71.3187 1294.91 74.886C1294.83 78.4532 1295.67 81.981 1297.34 85.1383H1302ZM1299.68 72.8094C1300.19 72.8026 1300.7 72.9483 1301.13 73.2279C1301.56 73.5076 1301.89 73.9083 1302.09 74.379C1302.29 74.8498 1302.35 75.369 1302.25 75.8704C1302.15 76.3718 1301.9 76.8326 1301.54 77.1939C1301.18 77.5552 1300.71 77.8005 1300.21 77.8985C1299.71 77.9965 1299.18 77.9428 1298.71 77.7441C1298.24 77.5455 1297.84 77.211 1297.55 76.7834C1297.27 76.3558 1297.13 75.8545 1297.13 75.3437C1297.14 74.6743 1297.41 74.0348 1297.89 73.5615C1298.37 73.0881 1299.01 72.8182 1299.68 72.8094Z" fill="#DD7631"/>
<path d="M1369.4 33.9904L1367.44 30.8225L1365.53 34.0589C1363.64 37.283 1362.64 40.9499 1362.64 44.684C1362.64 48.4181 1363.64 52.0851 1365.53 55.3092L1367.44 58.5627L1369.4 55.2407C1371.29 52.0166 1372.29 48.3496 1372.29 44.6155C1372.29 40.8815 1371.29 37.2145 1369.4 33.9904ZM1367.49 47.1755C1366.98 47.1755 1366.48 47.0244 1366.06 46.7414C1365.63 46.4584 1365.3 46.0563 1365.11 45.5859C1364.91 45.1156 1364.86 44.5983 1364.96 44.0996C1365.06 43.6008 1365.31 43.1432 1365.67 42.7847C1366.04 42.4262 1366.5 42.1829 1367 42.0857C1367.5 41.9886 1368.02 42.0419 1368.49 42.2389C1368.96 42.4359 1369.36 42.7678 1369.65 43.1925C1369.93 43.6171 1370.08 44.1154 1370.07 44.6241C1370.07 44.9643 1370 45.3007 1369.87 45.6138C1369.73 45.9268 1369.54 46.2102 1369.29 46.4476C1369.05 46.685 1368.76 46.8716 1368.44 46.9965C1368.12 47.1215 1367.78 47.1823 1367.44 47.1755H1367.49Z" fill="#DD7631"/>
<path d="M1369.4 64.7442L1367.49 61.5078L1365.58 64.7442C1363.69 67.9683 1362.69 71.6352 1362.69 75.3693C1362.69 79.1034 1363.69 82.7704 1365.58 85.9945L1367.49 89.2309L1369.4 85.9945C1371.29 82.7704 1372.29 79.1034 1372.29 75.3693C1372.29 71.6352 1371.29 67.9683 1369.4 64.7442ZM1367.49 77.9293C1366.98 77.9395 1366.48 77.798 1366.05 77.5228C1365.61 77.2475 1365.28 76.8511 1365.07 76.3837C1364.87 75.9164 1364.81 75.3993 1364.9 74.8982C1364.99 74.3971 1365.23 73.9346 1365.59 73.5696C1365.95 73.2046 1366.41 72.9535 1366.91 72.8482C1367.41 72.7429 1367.93 72.7883 1368.4 72.9784C1368.88 73.1686 1369.29 73.495 1369.57 73.9162C1369.86 74.3373 1370.02 74.8342 1370.02 75.3437C1370.02 75.6824 1369.96 76.0182 1369.83 76.3318C1369.7 76.6455 1369.51 76.9306 1369.27 77.171C1369.03 77.4113 1368.75 77.602 1368.43 77.7322C1368.12 77.8623 1367.78 77.9293 1367.44 77.9293H1367.49Z" fill="#708160"/>
<path d="M1367.44 122.999L1365.53 126.252C1363.64 129.473 1362.64 133.137 1362.64 136.869C1362.64 140.6 1363.64 144.264 1365.53 147.485L1367.44 150.687L1369.4 147.485C1371.29 144.264 1372.29 140.6 1372.29 136.869C1372.29 133.137 1371.29 129.473 1369.4 126.252L1367.44 122.999ZM1367.44 139.437C1366.93 139.437 1366.43 139.287 1366.01 139.004C1365.58 138.722 1365.25 138.321 1365.06 137.852C1364.86 137.382 1364.81 136.866 1364.91 136.368C1365.01 135.869 1365.25 135.412 1365.61 135.052C1365.98 134.693 1366.44 134.449 1366.94 134.349C1367.44 134.25 1367.96 134.301 1368.43 134.496C1368.9 134.69 1369.3 135.019 1369.59 135.442C1369.87 135.864 1370.02 136.361 1370.02 136.869C1370.02 137.55 1369.75 138.203 1369.26 138.685C1368.78 139.167 1368.12 139.437 1367.44 139.437Z" fill="#DD7631"/>
<path d="M1367.44 181.51L1369.35 178.256C1371.24 175.035 1372.24 171.371 1372.24 167.64C1372.24 163.908 1371.24 160.244 1369.35 157.023L1367.44 153.77L1365.53 157.023C1363.64 160.244 1362.64 163.908 1362.64 167.64C1362.64 171.371 1363.64 175.035 1365.53 178.256L1367.44 181.51ZM1367.44 165.071C1367.95 165.071 1368.45 165.222 1368.87 165.504C1369.3 165.786 1369.63 166.187 1369.82 166.657C1370.02 167.126 1370.07 167.642 1369.97 168.141C1369.87 168.639 1369.63 169.097 1369.26 169.456C1368.9 169.815 1368.44 170.06 1367.94 170.159C1367.44 170.258 1366.92 170.207 1366.45 170.013C1365.98 169.818 1365.58 169.489 1365.29 169.067C1365.01 168.644 1364.86 168.148 1364.86 167.64C1364.86 167.301 1364.92 166.965 1365.05 166.651C1365.18 166.338 1365.37 166.053 1365.61 165.812C1365.85 165.572 1366.13 165.381 1366.45 165.251C1366.76 165.121 1367.1 165.054 1367.44 165.054V165.071Z" fill="#708160"/>
<path d="M1384.39 213L1386.28 209.746C1388.17 206.526 1389.17 202.861 1389.17 199.13C1389.17 195.398 1388.17 191.734 1386.28 188.513L1384.39 185.26L1382.48 188.513C1380.59 191.734 1379.59 195.398 1379.59 199.13C1379.59 202.861 1380.59 206.526 1382.48 209.746L1384.39 213ZM1384.39 196.561C1384.9 196.561 1385.4 196.712 1385.82 196.994C1386.25 197.276 1386.58 197.678 1386.77 198.147C1386.97 198.616 1387.02 199.133 1386.92 199.631C1386.82 200.129 1386.57 200.587 1386.21 200.946C1385.85 201.305 1385.39 201.55 1384.89 201.649C1384.39 201.748 1383.87 201.697 1383.4 201.503C1382.93 201.308 1382.53 200.979 1382.24 200.557C1381.96 200.134 1381.81 199.638 1381.81 199.13C1381.81 198.449 1382.08 197.795 1382.56 197.314C1383.05 196.832 1383.7 196.561 1384.39 196.561Z" fill="#DD7631"/>
<path d="M1367.44 213L1369.35 209.746C1371.24 206.526 1372.24 202.861 1372.24 199.13C1372.24 195.398 1371.24 191.734 1369.35 188.513L1367.44 185.26L1365.53 188.513C1363.64 191.734 1362.64 195.398 1362.64 199.13C1362.64 202.861 1363.64 206.526 1365.53 209.746L1367.44 213ZM1367.44 196.561C1367.95 196.561 1368.45 196.712 1368.87 196.994C1369.3 197.276 1369.63 197.678 1369.82 198.147C1370.02 198.616 1370.07 199.133 1369.97 199.631C1369.87 200.129 1369.63 200.587 1369.26 200.946C1368.9 201.305 1368.44 201.55 1367.94 201.649C1367.44 201.748 1366.92 201.697 1366.45 201.503C1365.98 201.308 1365.58 200.979 1365.29 200.557C1365.01 200.134 1364.86 199.638 1364.86 199.13C1364.86 198.449 1365.13 197.795 1365.61 197.314C1366.1 196.832 1366.76 196.561 1367.44 196.561Z" fill="#D8C593"/>
<path d="M1369.4 95.4981L1367.49 92.2446L1365.58 95.4981C1363.69 98.7222 1362.69 102.389 1362.69 106.123C1362.69 109.857 1363.69 113.524 1365.58 116.748L1367.49 119.985L1369.4 116.748C1371.29 113.524 1372.29 109.857 1372.29 106.123C1372.29 102.389 1371.29 98.7222 1369.4 95.4981ZM1367.49 108.683C1366.98 108.683 1366.48 108.533 1366.06 108.25C1365.63 107.968 1365.3 107.567 1365.11 107.098C1364.91 106.628 1364.86 106.112 1364.96 105.614C1365.06 105.115 1365.31 104.658 1365.67 104.298C1366.03 103.939 1366.49 103.695 1366.99 103.596C1367.49 103.496 1368.01 103.547 1368.48 103.742C1368.95 103.936 1369.35 104.265 1369.64 104.688C1369.92 105.11 1370.07 105.607 1370.07 106.115C1370.07 106.456 1370 106.795 1369.87 107.11C1369.74 107.425 1369.54 107.71 1369.3 107.949C1369.05 108.189 1368.76 108.377 1368.44 108.503C1368.12 108.629 1367.78 108.69 1367.44 108.683H1367.49Z" fill="#D8C593"/>
<path d="M1367.44 0L1365.53 3.25348C1363.64 6.47441 1362.64 10.1386 1362.64 13.8701C1362.64 17.6015 1363.64 21.2658 1365.53 24.4867L1367.44 27.7402L1369.4 24.4867C1371.29 21.2658 1372.29 17.6015 1372.29 13.8701C1372.29 10.1386 1371.29 6.47441 1369.4 3.25348L1367.44 0ZM1367.44 16.4386C1366.93 16.4386 1366.43 16.288 1366.01 16.0057C1365.58 15.7235 1365.25 15.3224 1365.06 14.853C1364.86 14.3837 1364.81 13.8672 1364.91 13.369C1365.01 12.8707 1365.25 12.4131 1365.61 12.0539C1365.98 11.6946 1366.44 11.45 1366.94 11.3509C1367.44 11.2518 1367.96 11.3027 1368.43 11.4971C1368.9 11.6915 1369.3 12.0207 1369.59 12.4431C1369.87 12.8655 1370.02 13.3621 1370.02 13.8701C1370.02 14.5513 1369.75 15.2046 1369.26 15.6863C1368.78 16.168 1368.12 16.4386 1367.44 16.4386Z" fill="#D8C593"/>
<path d="M1384.39 122.999L1382.48 126.252C1380.59 129.473 1379.59 133.137 1379.59 136.869C1379.59 140.6 1380.59 144.264 1382.48 147.485L1384.39 150.687L1386.28 147.434C1388.17 144.213 1389.17 140.549 1389.17 136.817C1389.17 133.086 1388.17 129.422 1386.28 126.201L1384.39 122.999ZM1384.39 139.437C1383.88 139.441 1383.38 139.293 1382.95 139.013C1382.52 138.732 1382.19 138.333 1381.99 137.863C1381.79 137.394 1381.74 136.877 1381.84 136.378C1381.94 135.879 1382.18 135.419 1382.54 135.059C1382.9 134.698 1383.36 134.451 1383.86 134.351C1384.36 134.25 1384.88 134.3 1385.35 134.494C1385.83 134.688 1386.23 135.017 1386.52 135.44C1386.8 135.863 1386.95 136.36 1386.95 136.869C1386.95 137.547 1386.68 138.198 1386.2 138.679C1385.72 139.16 1385.07 139.433 1384.39 139.437Z" fill="#708160"/>
<path d="M1386.28 64.7442L1384.39 61.5078L1382.48 64.7442C1380.59 67.9683 1379.59 71.6352 1379.59 75.3693C1379.59 79.1034 1380.59 82.7704 1382.48 85.9945L1384.39 89.2309L1386.28 85.9945C1388.17 82.7704 1389.17 79.1034 1389.17 75.3693C1389.17 71.6352 1388.17 67.9683 1386.28 64.7442ZM1384.39 77.9293C1383.88 77.9327 1383.38 77.7854 1382.95 77.5059C1382.53 77.2265 1382.19 76.8276 1381.99 76.3595C1381.79 75.8915 1381.74 75.3754 1381.84 74.8765C1381.93 74.3776 1382.18 73.9184 1382.53 73.5568C1382.89 73.1952 1383.35 72.9475 1383.85 72.8451C1384.35 72.7426 1384.87 72.79 1385.34 72.9813C1385.82 73.1726 1386.22 73.4991 1386.51 73.9196C1386.79 74.3401 1386.95 74.8357 1386.95 75.3437C1386.95 75.681 1386.89 76.0154 1386.76 76.3279C1386.63 76.6404 1386.45 76.9248 1386.21 77.1649C1385.97 77.405 1385.69 77.5961 1385.37 77.7273C1385.06 77.8584 1384.73 77.9271 1384.39 77.9293Z" fill="#D8C593"/>
<path d="M1352.4 33.9904L1350.47 30.8225L1348.58 34.0589C1346.69 37.283 1345.69 40.9499 1345.69 44.684C1345.69 48.4181 1346.69 52.0851 1348.58 55.3092L1350.47 58.5627L1352.38 55.3092C1354.29 52.0786 1355.3 48.3997 1355.3 44.6521C1355.31 40.9046 1354.3 37.2241 1352.4 33.9904ZM1350.47 47.1755C1349.96 47.1755 1349.46 47.0244 1349.04 46.7414C1348.61 46.4584 1348.28 46.0563 1348.09 45.5859C1347.89 45.1156 1347.84 44.5983 1347.94 44.0996C1348.04 43.6008 1348.29 43.1432 1348.66 42.7847C1349.02 42.4262 1349.48 42.1829 1349.98 42.0857C1350.48 41.9886 1351 42.0419 1351.47 42.2389C1351.95 42.4359 1352.35 42.7678 1352.63 43.1925C1352.91 43.6171 1353.06 44.1154 1353.06 44.6241C1353.06 44.9606 1352.99 45.2938 1352.86 45.6045C1352.73 45.9151 1352.54 46.1972 1352.3 46.4343C1352.06 46.6714 1351.77 46.859 1351.46 46.9862C1351.15 47.1134 1350.81 47.1778 1350.47 47.1755Z" fill="#D8C593"/>
<path d="M1352.4 64.7442L1350.47 61.5078L1348.58 64.7442C1346.69 67.9683 1345.69 71.6352 1345.69 75.3693C1345.69 79.1034 1346.69 82.7704 1348.58 85.9945L1350.47 89.2309L1352.38 85.9945C1354.28 82.7719 1355.28 79.1057 1355.28 75.3717C1355.29 71.6376 1354.29 67.9698 1352.4 64.7442ZM1350.47 77.9293C1349.97 77.9259 1349.47 77.7728 1349.05 77.4893C1348.62 77.2058 1348.3 76.8045 1348.1 76.3358C1347.91 75.8672 1347.86 75.3522 1347.96 74.8555C1348.06 74.3589 1348.31 73.9028 1348.67 73.5446C1349.03 73.1864 1349.48 72.9422 1349.98 72.8425C1350.48 72.7428 1351 72.7923 1351.47 72.9845C1351.94 73.1768 1352.35 73.5034 1352.63 73.9231C1352.92 74.3429 1353.07 74.8371 1353.07 75.3437C1353.08 75.6845 1353.01 76.0228 1352.88 76.3386C1352.75 76.6544 1352.56 76.9412 1352.32 77.1823C1352.08 77.4233 1351.79 77.6136 1351.47 77.7419C1351.16 77.8702 1350.82 77.9339 1350.47 77.9293Z" fill="#DD7631"/>
<path d="M1335.47 64.7442L1333.58 61.5078L1331.67 64.7442C1329.77 67.9683 1328.78 71.6352 1328.78 75.3693C1328.78 79.1034 1329.77 82.7704 1331.67 85.9945L1333.58 89.2309L1335.47 85.9945C1337.36 82.7704 1338.36 79.1034 1338.36 75.3693C1338.36 71.6352 1337.36 67.9683 1335.47 64.7442ZM1333.58 77.9293C1333.07 77.9327 1332.57 77.7854 1332.14 77.5059C1331.71 77.2265 1331.38 76.8276 1331.18 76.3595C1330.98 75.8915 1330.93 75.3754 1331.03 74.8765C1331.12 74.3776 1331.36 73.9184 1331.72 73.5568C1332.08 73.1952 1332.54 72.9475 1333.04 72.8451C1333.54 72.7426 1334.06 72.79 1334.53 72.9813C1335 73.1726 1335.41 73.4991 1335.7 73.9196C1335.98 74.3401 1336.14 74.8357 1336.14 75.3437C1336.14 75.681 1336.08 76.0154 1335.95 76.3279C1335.82 76.6404 1335.64 76.9248 1335.4 77.1649C1335.16 77.405 1334.88 77.5961 1334.56 77.7273C1334.25 77.8584 1333.92 77.9271 1333.58 77.9293Z" fill="#D8C593"/>
<path d="M1420.83 44.624C1420.83 45.3052 1420.56 45.9586 1420.08 46.4403C1419.59 46.9219 1418.94 47.1926 1418.25 47.1926C1417.57 47.1926 1416.91 46.9219 1416.43 46.4403C1415.94 45.9586 1415.67 45.3052 1415.67 44.624H1413.48C1413.48 48.3539 1414.47 52.018 1416.36 55.2406L1418.27 58.4941L1420.16 55.2406C1421.97 52.1429 1422.96 48.6362 1423.03 45.0521L1422.62 44.624H1420.83Z" fill="#708160"/>
<path d="M1262.88 22.6202C1263.17 23.3136 1263.51 23.9884 1263.89 24.6407L1265.8 27.8942L1267.69 24.6407C1269.42 21.6765 1270.39 18.3381 1270.53 14.9146C1267.73 17.2208 1265.16 19.8023 1262.88 22.6202Z" fill="#D8C593"/>
</g>
</svg>
