<svg width="1440" height="800" viewBox="0 0 1440 800" fill="none" xmlns="http://www.w3.org/2000/svg">
<rect width="1440" height="800" fill="#376562"/>
<path opacity="0.6" d="M1345.46 774.831C1382.55 774.831 1412.72 743.436 1412.72 704.861C1412.72 666.285 1382.54 634.89 1345.46 634.89C1308.38 634.89 1278.21 666.285 1278.21 704.861C1278.21 743.436 1308.38 774.831 1345.46 774.831ZM1345.46 637.667C1381.08 637.667 1410.05 667.809 1410.05 704.859C1410.05 741.908 1381.08 772.049 1345.46 772.049C1309.85 772.049 1280.88 741.908 1280.88 704.859C1280.88 667.809 1309.85 637.669 1345.46 637.669V637.667Z" fill="#DFC591"/>
<path opacity="0.6" d="M1346.2 767.142C1379.62 767.142 1406.81 739.203 1406.81 704.861C1406.81 670.518 1379.62 642.579 1346.2 642.579C1312.78 642.579 1285.6 670.516 1285.6 704.861C1285.6 739.205 1312.79 767.142 1346.2 767.142ZM1346.2 643.621C1379.06 643.621 1405.8 671.094 1405.8 704.866C1405.8 738.637 1379.06 766.111 1346.2 766.111C1313.34 766.111 1286.61 738.635 1286.61 704.866C1286.61 671.096 1313.34 643.626 1346.2 643.626V643.621Z" fill="#DFC591"/>
<path opacity="0.6" d="M1344.72 714.856C1346.48 714.857 1348.19 714.316 1349.65 713.302C1351.11 712.288 1352.25 710.847 1352.92 709.161C1353.59 707.475 1353.76 705.62 1353.42 703.83C1353.08 702.04 1352.24 700.396 1351 699.105C1349.75 697.815 1348.17 696.936 1346.45 696.58C1344.73 696.224 1342.95 696.407 1341.33 697.105C1339.71 697.804 1338.32 698.987 1337.35 700.504C1336.37 702.022 1335.85 703.806 1335.85 705.631C1335.86 708.077 1336.79 710.422 1338.45 712.151C1340.12 713.881 1342.37 714.854 1344.72 714.856V714.856ZM1344.72 699.207C1345.95 699.205 1347.14 699.581 1348.16 700.287C1349.18 700.992 1349.97 701.996 1350.44 703.171C1350.91 704.346 1351.03 705.639 1350.79 706.887C1350.56 708.135 1349.97 709.282 1349.1 710.182C1348.24 711.083 1347.14 711.696 1345.94 711.945C1344.74 712.194 1343.5 712.067 1342.37 711.58C1341.24 711.094 1340.27 710.269 1339.59 709.212C1338.91 708.154 1338.55 706.91 1338.55 705.638C1338.55 703.934 1339.2 702.299 1340.36 701.093C1341.51 699.888 1343.08 699.209 1344.72 699.207Z" fill="#636E5C"/>
<path opacity="0.6" d="M1345.49 620.179L1352.11 627.067L1345.49 633.955L1338.86 627.067L1345.49 620.179Z" fill="#636E5C"/>
<path opacity="0.6" d="M1358.03 630.277C1357.21 630.277 1356.55 629.244 1356.55 627.97C1356.55 626.696 1357.21 625.663 1358.03 625.663C1358.84 625.663 1359.51 626.696 1359.51 627.97C1359.51 629.244 1358.84 630.277 1358.03 630.277Z" fill="#F87727"/>
<path opacity="0.6" d="M1373.44 625.306L1377.39 634.135L1368.91 638.251L1364.95 629.423L1373.44 625.306Z" fill="#828A5D"/>
<path opacity="0.6" d="M1380.33 636.406C1380.18 636.835 1380.16 637.301 1380.26 637.745C1380.37 638.188 1380.6 638.59 1380.92 638.898C1381.24 639.206 1381.65 639.408 1382.08 639.477C1382.51 639.546 1382.96 639.48 1383.36 639.286C1383.75 639.093 1384.09 638.781 1384.31 638.39C1384.54 638 1384.65 637.547 1384.63 637.091C1384.61 636.635 1384.46 636.196 1384.2 635.828C1383.94 635.461 1383.58 635.182 1383.17 635.027C1382.62 634.82 1382.01 634.849 1381.48 635.107C1380.95 635.366 1380.53 635.833 1380.33 636.406V636.406Z" fill="#F87727"/>
<path opacity="0.6" d="M1398.01 640.07L1398.83 649.774L1389.5 650.623L1388.69 640.919L1398.01 640.07Z" fill="#636E5C"/>
<path opacity="0.6" d="M1400.11 653.894C1399.73 654.127 1399.5 654.412 1399.43 654.715C1399.37 655.017 1399.48 655.322 1399.75 655.592C1400.02 655.862 1400.44 656.084 1400.95 656.23C1401.46 656.376 1402.05 656.44 1402.63 656.414C1403.21 656.387 1403.77 656.271 1404.22 656.081C1404.68 655.89 1405.02 655.634 1405.19 655.344C1405.37 655.054 1405.37 654.743 1405.21 654.451C1405.05 654.159 1404.72 653.899 1404.27 653.704C1403.97 653.574 1403.63 653.476 1403.26 653.415C1402.89 653.354 1402.5 653.332 1402.11 653.35C1401.73 653.367 1401.35 653.425 1401.01 653.518C1400.66 653.611 1400.36 653.739 1400.11 653.894V653.894Z" fill="#F87727"/>
<path opacity="0.6" d="M1406.4 660.416L1415.48 662.949L1413.05 672.397L1403.97 669.865L1406.4 660.416Z" fill="#828A5D"/>
<path opacity="0.6" d="M1415.31 676.719C1414.93 676.947 1414.62 677.287 1414.43 677.696C1414.23 678.105 1414.16 678.565 1414.22 679.018C1414.27 679.47 1414.46 679.895 1414.75 680.238C1415.04 680.581 1415.42 680.827 1415.84 680.946C1416.26 681.064 1416.71 681.049 1417.13 680.902C1417.54 680.756 1417.91 680.484 1418.17 680.122C1418.44 679.76 1418.6 679.324 1418.63 678.869C1418.66 678.414 1418.55 677.96 1418.34 677.564C1418.04 677.035 1417.56 676.648 1416.99 676.49C1416.42 676.331 1415.82 676.414 1415.31 676.719V676.719Z" fill="#F87727"/>
<path opacity="0.6" d="M1418.29 684.843L1425.97 690.43L1420.59 698.41L1412.92 692.823L1418.29 684.843Z" fill="#636E5C"/>
<path opacity="0.6" d="M1420.47 702.589C1420.03 702.668 1419.63 702.878 1419.32 703.193C1419 703.508 1418.78 703.914 1418.68 704.359C1418.59 704.804 1418.62 705.269 1418.78 705.694C1418.94 706.12 1419.22 706.486 1419.58 706.748C1419.93 707.01 1420.36 707.156 1420.8 707.167C1421.24 707.177 1421.67 707.052 1422.04 706.808C1422.41 706.563 1422.7 706.21 1422.88 705.793C1423.05 705.376 1423.11 704.914 1423.03 704.464C1422.98 704.166 1422.88 703.88 1422.72 703.624C1422.56 703.368 1422.36 703.147 1422.12 702.972C1421.88 702.798 1421.62 702.675 1421.33 702.609C1421.05 702.543 1420.75 702.536 1420.47 702.589V702.589Z" fill="#F87727"/>
<path opacity="0.6" d="M1420.6 711.977L1425.97 719.957L1418.3 725.544L1412.93 717.564L1420.6 711.977Z" fill="#828A5D"/>
<path opacity="0.6" d="M1416.8 728.732C1416.37 728.652 1415.92 728.708 1415.52 728.892C1415.12 729.076 1414.78 729.379 1414.54 729.764C1414.31 730.149 1414.19 730.597 1414.2 731.053C1414.21 731.51 1414.35 731.953 1414.6 732.326C1414.85 732.7 1415.2 732.988 1415.61 733.153C1416.02 733.318 1416.47 733.354 1416.89 733.255C1417.32 733.157 1417.71 732.928 1418.02 732.598C1418.32 732.269 1418.52 731.853 1418.6 731.404C1418.7 730.801 1418.57 730.181 1418.23 729.68C1417.89 729.179 1417.38 728.838 1416.8 728.732V728.732Z" fill="#F87727"/>
<path opacity="0.6" d="M1412.89 737.804L1415.33 747.253L1406.24 749.785L1403.81 740.337L1412.89 737.804Z" fill="#636E5C"/>
<path opacity="0.6" d="M1404.22 753.61C1403.84 753.382 1403.4 753.276 1402.96 753.306C1402.53 753.336 1402.11 753.501 1401.76 753.778C1401.41 754.056 1401.15 754.435 1401.01 754.867C1400.87 755.299 1400.86 755.765 1400.97 756.206C1401.08 756.646 1401.32 757.042 1401.65 757.343C1401.98 757.644 1402.39 757.836 1402.82 757.895C1403.26 757.954 1403.7 757.878 1404.09 757.676C1404.48 757.474 1404.81 757.156 1405.03 756.76C1405.18 756.498 1405.27 756.208 1405.31 755.908C1405.35 755.608 1405.33 755.303 1405.25 755.01C1405.18 754.717 1405.05 754.443 1404.87 754.203C1404.69 753.963 1404.47 753.761 1404.22 753.61Z" fill="#F87727"/>
<path opacity="0.6" d="M1389.51 759.768L1398.83 760.617L1398.02 770.321L1388.69 769.472L1389.51 759.768Z" fill="#828A5D"/>
<path opacity="0.6" d="M1385.42 771.042C1385.05 770.692 1384.55 770.437 1383.98 770.31C1383.42 770.182 1382.83 770.186 1382.27 770.324C1381.71 770.461 1381.22 770.724 1380.85 771.079C1380.48 771.435 1380.26 771.868 1380.21 772.322C1380.16 772.777 1380.28 773.233 1380.56 773.633C1380.84 774.033 1381.27 774.359 1381.79 774.57C1382.31 774.78 1382.9 774.866 1383.48 774.817C1384.06 774.767 1384.61 774.584 1385.06 774.291C1385.66 773.898 1386.03 773.335 1386.1 772.725C1386.17 772.116 1385.92 771.511 1385.42 771.042Z" fill="#F87727"/>
<path opacity="0.6" d="M1368.91 772.138L1377.39 776.254L1373.43 785.083L1364.95 780.966L1368.91 772.138Z" fill="#636E5C"/>
<path opacity="0.6" d="M1360.85 781.476C1360.7 780.904 1360.43 780.405 1360.08 780.044C1359.73 779.683 1359.31 779.475 1358.87 779.447C1358.43 779.42 1357.99 779.573 1357.62 779.888C1357.24 780.203 1356.94 780.666 1356.76 781.218C1356.57 781.769 1356.51 782.385 1356.57 782.987C1356.64 783.589 1356.83 784.15 1357.13 784.598C1357.43 785.047 1357.81 785.364 1358.24 785.508C1358.67 785.652 1359.11 785.617 1359.53 785.408C1360.08 785.129 1360.53 784.559 1360.77 783.822C1361.02 783.085 1361.05 782.242 1360.85 781.476V781.476Z" fill="#F87727"/>
<path opacity="0.6" d="M1345.48 776.433L1352.11 783.321L1345.48 790.209L1338.86 783.321L1345.48 776.433Z" fill="#828A5D"/>
<path opacity="0.6" d="M1332.16 785.595C1330.93 785.595 1329.94 784.218 1329.94 782.52C1329.94 780.821 1330.93 779.444 1332.16 779.444C1333.38 779.444 1334.38 780.821 1334.38 782.52C1334.38 784.218 1333.38 785.595 1332.16 785.595Z" fill="#F87727"/>
<path opacity="0.6" d="M1322.06 772.135L1326.02 780.964L1317.53 785.08L1313.58 776.252L1322.06 772.135Z" fill="#636E5C"/>
<path opacity="0.6" d="M1310.59 773.821C1310.74 773.535 1310.77 773.224 1310.66 772.929C1310.56 772.633 1310.33 772.365 1310.01 772.159C1309.68 771.954 1309.28 771.819 1308.85 771.773C1308.41 771.726 1307.97 771.771 1307.57 771.899C1307.17 772.028 1306.84 772.236 1306.61 772.497C1306.38 772.757 1306.27 773.059 1306.29 773.363C1306.31 773.667 1306.46 773.96 1306.72 774.205C1306.98 774.45 1307.34 774.636 1307.76 774.739C1308.31 774.877 1308.92 774.858 1309.45 774.686C1309.98 774.514 1310.39 774.203 1310.59 773.821Z" fill="#F87727"/>
<path opacity="0.6" d="M1301.47 759.764L1302.28 769.468L1292.96 770.317L1292.14 760.613L1301.47 759.764Z" fill="#828A5D"/>
<path opacity="0.6" d="M1289.69 757.09C1289.87 756.74 1289.99 756.312 1290.02 755.858C1290.05 755.405 1290 754.947 1289.86 754.542C1289.73 754.138 1289.52 753.805 1289.26 753.585C1289.01 753.366 1288.72 753.27 1288.42 753.31C1288.13 753.35 1287.86 753.524 1287.63 753.809C1287.4 754.095 1287.23 754.48 1287.14 754.915C1287.06 755.35 1287.05 755.816 1287.13 756.254C1287.22 756.692 1287.38 757.082 1287.6 757.375C1287.75 757.57 1287.92 757.717 1288.11 757.808C1288.29 757.899 1288.49 757.932 1288.68 757.906C1288.88 757.879 1289.06 757.794 1289.24 757.654C1289.41 757.514 1289.56 757.322 1289.69 757.09Z" fill="#F87727"/>
<path opacity="0.6" d="M1277.13 738.29L1286.18 740.811L1283.75 750.22L1274.71 747.699L1277.13 738.29Z" fill="#636E5C"/>
<path opacity="0.6" d="M1275.62 734.435C1276 734.131 1276.31 733.678 1276.5 733.132C1276.69 732.586 1276.77 731.973 1276.71 731.37C1276.65 730.767 1276.47 730.201 1276.18 729.744C1275.89 729.287 1275.51 728.959 1275.09 728.801C1274.66 728.644 1274.21 728.664 1273.8 728.86C1273.38 729.056 1273.02 729.418 1272.75 729.9C1272.49 730.383 1272.33 730.965 1272.3 731.572C1272.27 732.179 1272.37 732.784 1272.59 733.31C1272.74 733.66 1272.93 733.967 1273.16 734.213C1273.39 734.458 1273.66 734.639 1273.94 734.743C1274.22 734.848 1274.51 734.874 1274.8 734.821C1275.09 734.768 1275.37 734.637 1275.62 734.435V734.435Z" fill="#F87727"/>
<path opacity="0.6" d="M1270.37 711.977L1278.04 717.564L1272.67 725.544L1265 719.957L1270.37 711.977Z" fill="#828A5D"/>
<path opacity="0.6" d="M1270.46 708.659C1270.89 708.553 1271.29 708.272 1271.61 707.851C1271.93 707.431 1272.15 706.889 1272.24 706.295C1272.34 705.701 1272.3 705.082 1272.14 704.515C1271.98 703.948 1271.71 703.459 1271.35 703.11C1270.99 702.761 1270.56 702.568 1270.13 702.554C1269.69 702.541 1269.26 702.709 1268.89 703.036C1268.52 703.362 1268.22 703.834 1268.05 704.391C1267.87 704.948 1267.82 705.565 1267.89 706.164C1268 706.967 1268.32 707.681 1268.81 708.148C1269.29 708.616 1269.88 708.8 1270.46 708.659V708.659Z" fill="#F87727"/>
<path opacity="0.6" d="M1272.67 684.847L1278.04 692.826L1270.37 698.413L1265 690.434L1272.67 684.847Z" fill="#636E5C"/>
<path opacity="0.6" d="M1274.13 680.989C1274.56 681.069 1275 681.013 1275.4 680.829C1275.81 680.645 1276.15 680.342 1276.38 679.957C1276.62 679.572 1276.74 679.124 1276.73 678.667C1276.72 678.211 1276.58 677.768 1276.33 677.395C1276.08 677.021 1275.72 676.733 1275.32 676.568C1274.91 676.402 1274.46 676.367 1274.03 676.466C1273.6 676.564 1273.21 676.793 1272.91 677.123C1272.61 677.452 1272.4 677.868 1272.33 678.317C1272.23 678.92 1272.36 679.54 1272.7 680.041C1273.03 680.542 1273.55 680.883 1274.13 680.989V680.989Z" fill="#F87727"/>
<path opacity="0.6" d="M1283.75 660.166L1286.18 669.575L1277.13 672.096L1274.71 662.687L1283.75 660.166Z" fill="#828A5D"/>
<path opacity="0.6" d="M1286.71 657.649C1287.09 657.877 1287.52 657.982 1287.96 657.952C1288.4 657.922 1288.82 657.758 1289.16 657.48C1289.51 657.202 1289.77 656.823 1289.91 656.391C1290.06 655.959 1290.07 655.493 1289.96 655.053C1289.84 654.612 1289.61 654.216 1289.28 653.916C1288.95 653.615 1288.54 653.423 1288.1 653.363C1287.67 653.304 1287.23 653.38 1286.83 653.582C1286.44 653.784 1286.11 654.103 1285.89 654.498C1285.6 655.028 1285.52 655.658 1285.67 656.248C1285.83 656.839 1286.2 657.343 1286.71 657.649V657.649Z" fill="#F87727"/>
<path opacity="0.6" d="M1292.96 640.073L1302.28 640.922L1301.47 650.626L1292.14 649.777L1292.96 640.073Z" fill="#636E5C"/>
<path opacity="0.6" d="M1306.64 638.68C1306.83 639.029 1307.08 639.284 1307.36 639.411C1307.64 639.539 1307.94 639.534 1308.21 639.397C1308.49 639.26 1308.74 638.997 1308.92 638.641C1309.11 638.285 1309.22 637.853 1309.24 637.398C1309.27 636.944 1309.21 636.488 1309.07 636.088C1308.93 635.688 1308.71 635.362 1308.45 635.151C1308.19 634.94 1307.9 634.854 1307.61 634.904C1307.32 634.953 1307.04 635.136 1306.82 635.429C1306.52 635.823 1306.33 636.386 1306.3 636.995C1306.26 637.605 1306.39 638.211 1306.64 638.68Z" fill="#F87727"/>
<path opacity="0.6" d="M1317.53 625.309L1326.02 629.426L1322.06 638.254L1313.57 634.137L1317.53 625.309Z" fill="#828A5D"/>
<path opacity="0.6" d="M1330.07 628.752C1330.22 629.182 1330.49 629.556 1330.84 629.827C1331.2 630.098 1331.62 630.253 1332.06 630.274C1332.5 630.295 1332.93 630.18 1333.31 629.944C1333.68 629.707 1333.98 629.36 1334.17 628.946C1334.35 628.533 1334.42 628.071 1334.35 627.619C1334.28 627.168 1334.09 626.747 1333.79 626.411C1333.5 626.074 1333.11 625.837 1332.68 625.729C1332.26 625.621 1331.81 625.647 1331.4 625.803C1330.85 626.013 1330.4 626.441 1330.15 626.993C1329.9 627.546 1329.87 628.179 1330.07 628.752Z" fill="#F87727"/>
<path opacity="0.6" d="M1344.72 645.655C1371.33 673.623 1344.72 691.789 1344.72 691.789C1344.72 691.789 1318.12 673.623 1344.72 645.655Z" fill="#636E5C"/>
<path opacity="0.6" d="M1345.46 681.024C1341.79 681.024 1338.81 677.926 1338.81 674.104C1338.81 670.282 1341.79 667.184 1345.46 667.184C1349.14 667.184 1352.11 670.282 1352.11 674.104C1352.11 677.926 1349.14 681.024 1345.46 681.024Z" fill="white"/>
<path opacity="0.6" d="M1344.72 650.268C1344.17 651.227 1343.78 652.266 1343.56 653.344C1343.35 654.357 1343.25 655.387 1343.25 656.42C1343.24 657.453 1343.35 658.484 1343.56 659.496C1343.78 660.575 1344.17 661.613 1344.72 662.571C1345.28 661.613 1345.67 660.575 1345.89 659.496C1346.1 658.484 1346.2 657.453 1346.2 656.42C1346.2 655.387 1346.09 654.357 1345.88 653.344C1345.67 652.266 1345.27 651.227 1344.72 650.268V650.268Z" fill="#DFC591"/>
<path opacity="0.6" d="M1394.98 675.269C1385.51 713.065 1358.03 698.088 1358.03 698.088C1358.03 698.088 1359.64 665.141 1394.98 675.269Z" fill="#636E5C"/>
<path opacity="0.6" d="M1368.74 683.49C1367.6 684.174 1366.69 685.194 1366.1 686.422C1365.52 687.649 1365.3 689.029 1365.47 690.386C1365.65 691.742 1366.2 693.016 1367.07 694.045C1367.94 695.074 1369.08 695.812 1370.35 696.167C1371.62 696.521 1372.96 696.475 1374.21 696.036C1375.45 695.596 1376.54 694.782 1377.35 693.696C1378.15 692.61 1378.62 691.302 1378.71 689.936C1378.79 688.571 1378.49 687.209 1377.83 686.024C1377.39 685.236 1376.81 684.546 1376.12 683.993C1375.43 683.44 1374.64 683.034 1373.79 682.798C1372.95 682.563 1372.07 682.503 1371.2 682.621C1370.34 682.74 1369.5 683.035 1368.74 683.49Z" fill="white"/>
<path opacity="0.6" d="M1390.55 676.411C1389.63 676.43 1388.73 676.666 1387.86 677.112C1387.04 677.522 1386.26 678.054 1385.51 678.7C1384.77 679.341 1384.07 680.097 1383.42 680.954C1382.73 681.854 1382.14 682.917 1381.68 684.1C1382.59 684.086 1383.5 683.851 1384.37 683.403C1385.18 682.995 1385.97 682.462 1386.71 681.811C1387.46 681.166 1388.15 680.409 1388.8 679.553C1389.49 678.652 1390.08 677.591 1390.55 676.411V676.411Z" fill="#DFC591"/>
<path opacity="0.6" d="M1394.98 734.451C1359.64 744.58 1358.03 711.63 1358.03 711.63C1358.03 711.63 1385.51 696.66 1394.98 734.451Z" fill="#636E5C"/>
<path opacity="0.6" d="M1375.39 715.783C1374.25 715.098 1372.95 714.781 1371.63 714.871C1370.32 714.961 1369.06 715.454 1368.02 716.287C1366.98 717.12 1366.19 718.257 1365.77 719.553C1365.35 720.849 1365.3 722.246 1365.64 723.568C1365.99 724.89 1366.69 726.077 1367.68 726.979C1368.67 727.882 1369.9 728.459 1371.2 728.637C1372.51 728.816 1373.83 728.588 1375.01 727.983C1376.19 727.378 1377.17 726.422 1377.83 725.237C1378.27 724.45 1378.55 723.581 1378.66 722.68C1378.78 721.778 1378.72 720.863 1378.49 719.985C1378.27 719.107 1377.88 718.284 1377.35 717.563C1376.81 716.842 1376.15 716.237 1375.39 715.783V715.783Z" fill="white"/>
<path opacity="0.6" d="M1390.55 733.31C1390.08 732.131 1389.49 731.07 1388.8 730.168C1388.15 729.312 1387.45 728.556 1386.71 727.91C1385.97 727.259 1385.18 726.726 1384.37 726.318C1383.5 725.87 1382.59 725.635 1381.68 725.621C1382.14 726.804 1382.73 727.866 1383.42 728.767C1384.07 729.624 1384.77 730.38 1385.51 731.021C1386.26 731.668 1387.04 732.2 1387.86 732.609C1388.72 733.056 1389.63 733.292 1390.55 733.31V733.31Z" fill="#DFC591"/>
<path opacity="0.6" d="M1344.72 764.066C1318.12 737.03 1344.72 719.47 1344.72 719.47C1344.72 719.47 1371.33 737.03 1344.72 764.066Z" fill="#636E5C"/>
<path opacity="0.6" d="M1345.46 742.537C1341.79 742.537 1338.81 739.439 1338.81 735.617C1338.81 731.795 1341.79 728.697 1345.46 728.697C1349.14 728.697 1352.11 731.795 1352.11 735.617C1352.11 739.439 1349.14 742.537 1345.46 742.537Z" fill="white"/>
<path opacity="0.6" d="M1344.72 760.99C1345.28 760.032 1345.67 758.993 1345.88 757.914C1346.09 756.903 1346.2 755.873 1346.2 754.84C1346.2 753.807 1346.1 752.776 1345.89 751.764C1345.67 750.684 1345.28 749.646 1344.72 748.688C1344.17 749.646 1343.78 750.684 1343.56 751.764C1343.35 752.776 1343.24 753.807 1343.25 754.84C1343.25 755.873 1343.35 756.903 1343.56 757.914C1343.78 758.993 1344.17 760.032 1344.72 760.99V760.99Z" fill="#DFC591"/>
<path opacity="0.6" d="M1295.95 734.451C1305.41 696.66 1332.9 711.63 1332.9 711.63C1332.9 711.63 1331.28 744.58 1295.95 734.451Z" fill="#636E5C"/>
<path opacity="0.6" d="M1323.66 727.769C1324.8 727.085 1325.72 726.065 1326.3 724.837C1326.88 723.61 1327.1 722.23 1326.93 720.873C1326.76 719.516 1326.2 718.242 1325.34 717.213C1324.47 716.184 1323.33 715.446 1322.06 715.092C1320.79 714.738 1319.44 714.784 1318.2 715.224C1316.95 715.664 1315.86 716.478 1315.06 717.564C1314.26 718.65 1313.78 719.959 1313.7 721.324C1313.61 722.69 1313.92 724.052 1314.57 725.237C1315.46 726.826 1316.91 727.986 1318.61 728.461C1320.32 728.936 1322.13 728.687 1323.66 727.769V727.769Z" fill="white"/>
<path opacity="0.6" d="M1300.38 733.31C1301.29 733.292 1302.2 733.056 1303.07 732.609C1303.88 732.2 1304.67 731.669 1305.41 731.021C1306.16 730.38 1306.86 729.624 1307.5 728.767C1308.19 727.866 1308.78 726.804 1309.25 725.621C1308.33 725.635 1307.43 725.87 1306.56 726.318C1305.74 726.726 1304.96 727.259 1304.22 727.91C1303.47 728.555 1302.77 729.312 1302.13 730.168C1301.44 731.07 1300.85 732.131 1300.38 733.31V733.31Z" fill="#DFC591"/>
<path opacity="0.6" d="M1295.95 675.269C1331.28 665.141 1332.9 698.088 1332.9 698.088C1332.9 698.088 1305.41 713.065 1295.95 675.269Z" fill="#636E5C"/>
<path opacity="0.6" d="M1317.01 695.475C1318.15 696.16 1319.46 696.477 1320.77 696.388C1322.08 696.298 1323.34 695.806 1324.38 694.973C1325.43 694.14 1326.21 693.003 1326.63 691.707C1327.06 690.411 1327.1 689.014 1326.76 687.692C1326.42 686.369 1325.71 685.182 1324.72 684.28C1323.73 683.377 1322.51 682.8 1321.2 682.621C1319.9 682.443 1318.57 682.671 1317.39 683.276C1316.21 683.881 1315.23 684.837 1314.57 686.022C1313.69 687.612 1313.45 689.501 1313.91 691.273C1314.37 693.046 1315.48 694.557 1317.01 695.475Z" fill="white"/>
<path opacity="0.6" d="M1300.38 676.411C1300.85 677.591 1301.44 678.652 1302.13 679.553C1302.77 680.41 1303.47 681.167 1304.22 681.811C1304.96 682.462 1305.74 682.995 1306.56 683.403C1307.43 683.851 1308.33 684.086 1309.25 684.1C1308.78 682.917 1308.19 681.854 1307.5 680.954C1306.86 680.1 1306.16 679.347 1305.42 678.708C1304.67 678.062 1303.88 677.53 1303.07 677.121C1302.2 676.672 1301.29 676.432 1300.38 676.411Z" fill="#DFC591"/>
<path opacity="0.6" d="M1368.57 661.358L1369.74 662.044L1358.59 682.514L1357.43 681.828L1368.57 661.358Z" fill="#F87727"/>
<path opacity="0.6" d="M1393.52 704.077L1393.53 705.468L1370.91 705.661L1370.9 704.27L1393.52 704.077Z" fill="#F87727"/>
<path opacity="0.6" d="M1358.69 728.494L1370.22 748.726L1369.07 749.436L1357.54 729.204L1358.69 728.494Z" fill="#F87727"/>
<path opacity="0.6" d="M1332.38 727.836L1333.54 728.522L1322.4 748.991L1321.23 748.305L1332.38 727.836Z" fill="#F87727"/>
<path opacity="0.6" d="M1320.05 704.725L1320.06 706.117L1297.45 706.314L1297.44 704.922L1320.05 704.725Z" fill="#F87727"/>
<path opacity="0.6" d="M1321.71 661.763L1333.19 682.035L1332.03 682.741L1320.56 662.469L1321.71 661.763Z" fill="#F87727"/>
<g opacity="0.8">
<path d="M68.747 57.9448L70.6185 54.7219C72.4903 51.528 73.4767 47.8955 73.4767 44.1965C73.4767 40.4974 72.4903 36.8649 70.6185 33.6711L68.747 30.533L66.8584 33.6711C64.9866 36.8649 64.0002 40.4974 64.0002 44.1965C64.0002 47.8955 64.9866 51.528 66.8584 54.7219L68.747 57.9448ZM68.747 41.6605C69.2517 41.6605 69.7452 41.8098 70.1649 42.0894C70.5846 42.3689 70.9117 42.7663 71.1048 43.2313C71.298 43.6962 71.3485 44.2078 71.2501 44.7014C71.1516 45.1949 70.9085 45.6483 70.5516 46.0041C70.1947 46.36 69.7399 46.6023 69.2449 46.7005C68.7498 46.7987 68.2366 46.7483 67.7703 46.5557C67.3039 46.3631 66.9054 46.037 66.6249 45.6186C66.3445 45.2001 66.1948 44.7082 66.1948 44.205C66.1948 43.5301 66.4637 42.883 66.9423 42.4058C67.4209 41.9286 68.0701 41.6605 68.747 41.6605V41.6605Z" fill="#DD7631"/>
<path d="M204.64 33.6711L202.752 30.533L200.863 33.7389C199 36.9356 198.018 40.5671 198.018 44.2643C198.018 47.9616 199 51.593 200.863 54.7897L202.752 58.0127L204.64 54.7897C206.525 51.5879 207.518 47.9428 207.518 44.2304C207.518 40.518 206.525 36.8729 204.64 33.6711V33.6711ZM202.752 46.7324C202.246 46.7324 201.752 46.5827 201.332 46.3024C200.912 46.0221 200.585 45.6237 200.392 45.1577C200.2 44.6918 200.15 44.1794 200.25 43.6853C200.35 43.1913 200.594 42.738 200.953 42.3828C201.312 42.0277 201.768 41.7867 202.264 41.6904C202.76 41.5942 203.274 41.647 203.74 41.8422C204.206 42.0374 204.604 42.3661 204.882 42.7868C205.16 43.2074 205.307 43.701 205.304 44.205C205.299 44.8768 205.028 45.5197 204.55 45.9932C204.072 46.4667 203.426 46.7324 202.752 46.7324Z" fill="#DD7631"/>
<path d="M221.382 64.1363L219.511 60.9303L217.622 64.1363C215.751 67.3301 214.764 70.9626 214.764 74.6617C214.764 78.3607 215.751 81.9932 217.622 85.1871L219.511 88.393L221.382 85.1871C223.254 81.9932 224.241 78.3607 224.241 74.6617C224.241 70.9626 223.254 67.3301 221.382 64.1363V64.1363ZM219.511 77.1976C219.006 77.2009 218.512 77.055 218.09 76.7782C217.669 76.5014 217.339 76.1062 217.143 75.6426C216.946 75.1789 216.892 74.6677 216.988 74.1735C217.083 73.6793 217.323 73.2243 217.677 72.8661C218.032 72.5079 218.485 72.2626 218.979 72.1611C219.474 72.0596 219.987 72.1066 220.455 72.2961C220.922 72.4855 221.323 72.809 221.606 73.2255C221.89 73.6421 222.043 74.133 222.046 74.6362C222.048 74.9704 221.984 75.3017 221.858 75.6112C221.732 75.9208 221.546 76.2025 221.311 76.4404C221.075 76.6782 220.795 76.8675 220.486 76.9974C220.177 77.1274 219.846 77.1954 219.511 77.1976V77.1976Z" fill="#D8C593"/>
<path d="M102.248 0L100.36 3.22293C98.4876 6.41361 97.501 10.0434 97.501 13.7399C97.501 17.4363 98.4876 21.0661 100.36 24.2568L102.248 27.4797L104.137 24.2568C106 21.0632 106.982 17.4345 106.982 13.7399C106.982 10.0452 106 6.4165 104.137 3.22293L102.248 0ZM102.248 16.2843C101.745 16.2776 101.255 16.1227 100.84 15.8391C100.424 15.5554 100.103 15.1558 99.9146 14.6903C99.7267 14.2248 99.681 13.7143 99.7832 13.223C99.8855 12.7317 100.131 12.2815 100.489 11.929C100.848 11.5766 101.302 11.3376 101.797 11.2421C102.291 11.1467 102.802 11.199 103.266 11.3925C103.731 11.5861 104.127 11.9122 104.406 12.3298C104.685 12.7475 104.834 13.2381 104.834 13.7399C104.834 14.0769 104.767 14.4105 104.637 14.7215C104.506 15.0324 104.315 15.3144 104.075 15.5511C103.834 15.7878 103.549 15.9746 103.235 16.1004C102.922 16.2263 102.586 16.2888 102.248 16.2843V16.2843Z" fill="#708160"/>
<path d="M219.511 91.3784L217.622 94.6013C215.751 97.7952 214.764 101.428 214.764 105.127C214.764 108.826 215.751 112.458 217.622 115.652L219.511 118.858L221.382 115.652C223.254 112.458 224.241 108.826 224.241 105.127C224.241 101.428 223.254 97.7952 221.382 94.6013L219.511 91.3784ZM219.511 107.663C219.003 107.666 218.506 107.518 218.083 107.238C217.66 106.959 217.331 106.559 217.136 106.092C216.942 105.624 216.892 105.109 216.993 104.613C217.094 104.117 217.341 103.662 217.702 103.307C218.063 102.952 218.523 102.712 219.022 102.618C219.521 102.524 220.036 102.581 220.502 102.781C220.969 102.981 221.365 103.315 221.64 103.74C221.915 104.166 222.056 104.663 222.046 105.169C222.033 105.832 221.76 106.464 221.287 106.93C220.813 107.395 220.176 107.658 219.511 107.663V107.663Z" fill="#DD7631"/>
<path d="M85.4889 30.533L83.6003 33.7389C81.7371 36.9356 80.7556 40.5671 80.7556 44.2643C80.7556 47.9616 81.7371 51.593 83.6003 54.7897L85.4889 58.0127L87.3775 54.7897C89.2493 51.5959 90.2356 47.9634 90.2356 44.2643C90.2356 40.5653 89.2493 36.9328 87.3775 33.7389L85.4889 30.533ZM85.4889 46.8003C84.9834 46.8003 84.4893 46.6506 84.0693 46.3702C83.6492 46.0899 83.3221 45.6915 83.1295 45.2256C82.9368 44.7597 82.8873 44.2472 82.9871 43.7532C83.087 43.2592 83.3318 42.8058 83.6904 42.4507C84.049 42.0955 84.5054 41.8545 85.0016 41.7583C85.4977 41.662 86.0114 41.7148 86.4774 41.91C86.9435 42.1052 87.3409 42.434 87.6193 42.8546C87.8976 43.2753 88.0445 43.7689 88.0411 44.2728C88.019 44.9328 87.7404 45.5584 87.2642 46.0174C86.7879 46.4764 86.1513 46.7328 85.4889 46.7324V46.8003Z" fill="#708160"/>
<path d="M236.253 60.9303L234.381 64.1363C232.51 67.3301 231.523 70.9626 231.523 74.6617C231.523 78.3607 232.51 81.9932 234.381 85.1871L236.253 88.393L238.141 85.1871C240.013 81.9932 241 78.3607 241 74.6617C241 70.9626 240.013 67.3301 238.141 64.1363L236.253 60.9303ZM236.253 77.1976C235.747 77.1976 235.253 77.0479 234.833 76.7676C234.413 76.4872 234.086 76.0889 233.893 75.6229C233.701 75.157 233.651 74.6446 233.751 74.1505C233.851 73.6565 234.096 73.2032 234.454 72.848C234.813 72.4928 235.269 72.2519 235.766 72.1556C236.262 72.0594 236.775 72.1122 237.241 72.3074C237.707 72.5025 238.105 72.8313 238.383 73.252C238.662 73.6726 238.808 74.1662 238.805 74.6702C238.805 75.0035 238.739 75.3335 238.61 75.6413C238.482 75.9491 238.294 76.2284 238.057 76.4634C237.819 76.6983 237.538 76.8841 237.228 77.0101C236.919 77.1361 236.587 77.1998 236.253 77.1976V77.1976Z" fill="#DD7631"/>
<path d="M70.6185 64.1363L68.7469 60.9303L66.8584 64.1363C66.4664 64.8165 66.1141 65.5188 65.8035 66.2396C68.0244 69.327 70.5997 72.145 73.4769 74.6362C73.4707 70.946 72.4845 67.3233 70.6185 64.1363V64.1363Z" fill="#708160"/>
<path d="M221.382 125.067L219.511 121.844L217.622 125.067C215.75 128.257 214.764 131.887 214.764 135.583C214.764 139.28 215.75 142.91 217.622 146.1L219.324 149.137L219.715 148.848L221.314 146.1C223.197 142.916 224.195 139.289 224.207 135.593C224.219 131.896 223.244 128.263 221.382 125.067V125.067ZM219.511 138.128C219.005 138.131 218.51 137.985 218.088 137.707C217.666 137.43 217.337 137.034 217.141 136.569C216.945 136.104 216.892 135.592 216.989 135.098C217.085 134.603 217.327 134.148 217.683 133.79C218.039 133.433 218.494 133.189 218.99 133.089C219.485 132.99 219.999 133.039 220.466 133.231C220.934 133.423 221.333 133.749 221.615 134.168C221.896 134.587 222.046 135.08 222.046 135.583C222.046 136.255 221.779 136.9 221.304 137.377C220.83 137.853 220.185 138.123 219.511 138.128V138.128Z" fill="#708160"/>
<path d="M87.3775 64.1363L85.4889 60.9303L83.6003 64.1363C80.8156 68.9214 80.039 74.6094 81.4395 79.9625L81.984 80.217C85.9143 81.9133 87.3605 81.6249 89.2661 80.8107C90.1262 78.0524 90.4024 75.1461 90.0773 72.2758C89.7522 69.4056 88.8329 66.6339 87.3775 64.1363V64.1363ZM85.4889 77.1976C84.9849 77.1976 84.4921 77.0488 84.0728 76.7699C83.6535 76.4911 83.3264 76.0947 83.1327 75.6308C82.9391 75.1668 82.8875 74.6561 82.9846 74.163C83.0818 73.6699 83.3231 73.2165 83.6784 72.86C84.0336 72.5035 84.4867 72.2598 84.9807 72.1597C85.4746 72.0597 85.9872 72.1076 86.4539 72.2976C86.9205 72.4876 87.3202 72.8111 87.6027 73.2273C87.8852 73.6435 88.0377 74.1337 88.0411 74.6362C88.0433 74.9718 87.979 75.3045 87.8517 75.6151C87.7245 75.9258 87.5368 76.2083 87.2996 76.4464C87.0624 76.6844 86.7803 76.8734 86.4695 77.0023C86.1588 77.1312 85.8255 77.1976 85.4889 77.1976V77.1976Z" fill="#D8C593"/>
<path d="M202.752 121.844L200.863 125.067C199 128.26 198.018 131.889 198.018 135.583C198.018 139.278 199 142.907 200.863 146.1L202.752 149.272L204.64 146.05C206.512 142.859 207.499 139.229 207.499 135.533C207.499 131.836 206.512 128.206 204.64 125.016L202.752 121.844ZM202.752 138.128C202.247 138.128 201.754 137.979 201.334 137.699C200.914 137.42 200.587 137.022 200.394 136.557C200.201 136.092 200.15 135.581 200.249 135.087C200.347 134.594 200.59 134.14 200.947 133.784C201.304 133.428 201.759 133.186 202.254 133.088C202.749 132.99 203.262 133.04 203.728 133.233C204.195 133.425 204.593 133.751 204.874 134.17C205.154 134.588 205.304 135.08 205.304 135.583C205.304 136.258 205.035 136.905 204.556 137.383C204.078 137.86 203.429 138.128 202.752 138.128V138.128Z" fill="#DD7631"/>
<path d="M204.64 64.1363L202.752 60.9303L200.863 64.1363C199 67.333 198.018 70.9644 198.018 74.6617C198.018 78.3589 199 81.9904 200.863 85.1871L202.752 88.393L204.64 85.1871C206.512 81.9932 207.498 78.3607 207.498 74.6617C207.498 70.9626 206.512 67.3301 204.64 64.1363V64.1363ZM202.752 77.1976C202.248 77.1976 201.755 77.0488 201.336 76.7699C200.916 76.4911 200.589 76.0947 200.395 75.6308C200.202 75.1668 200.15 74.6561 200.247 74.163C200.344 73.6699 200.586 73.2165 200.941 72.86C201.296 72.5035 201.749 72.2598 202.243 72.1597C202.737 72.0597 203.25 72.1076 203.717 72.2976C204.183 72.4876 204.583 72.8111 204.865 73.2273C205.148 73.6435 205.3 74.1337 205.304 74.6362C205.306 74.9718 205.242 75.3045 205.114 75.6151C204.987 75.9258 204.8 76.2083 204.562 76.4464C204.325 76.6844 204.043 76.8734 203.732 77.0023C203.421 77.1312 203.088 77.1976 202.752 77.1976V77.1976Z" fill="#708160"/>
<path d="M201.51 2.12036L200.863 3.22294C199 6.41652 198.018 10.0452 198.018 13.7399C198.018 17.4345 199 21.0632 200.863 24.2568L202.752 27.4797L204.64 24.2568C206.578 20.9402 207.556 17.153 207.465 13.3158C204.862 8.3457 202.514 3.95234 201.816 2.59532C201.729 2.42755 201.627 2.2685 201.51 2.12036V2.12036ZM205.304 13.7399C205.304 14.2431 205.154 14.735 204.874 15.1535C204.593 15.5719 204.195 15.898 203.728 16.0906C203.262 16.2832 202.749 16.3336 202.254 16.2354C201.759 16.1372 201.304 15.8949 200.947 15.539C200.59 15.1832 200.347 14.7298 200.249 14.2363C200.15 13.7427 200.201 13.2311 200.394 12.7662C200.587 12.3012 200.914 11.9038 201.334 11.6243C201.754 11.3447 202.247 11.1954 202.752 11.1954C203.429 11.1954 204.078 11.4635 204.556 11.9407C205.035 12.4179 205.304 13.065 205.304 13.7399V13.7399Z" fill="#708160"/>
<path d="M83.6005 24.2567L85.4891 27.4797L87.3777 24.2567C89.2496 21.0661 90.2362 17.4362 90.2362 13.7398C90.2362 10.0434 89.2496 6.41358 87.3777 3.2229L85.6762 0.305298C85.2211 1.73667 84.3723 3.01199 83.2262 3.98622C81.5518 7.11708 80.7073 10.6225 80.7728 14.1699C80.8383 17.7174 81.8117 21.1894 83.6005 24.2567V24.2567ZM85.4891 11.1954C85.9939 11.1954 86.4873 11.3446 86.907 11.6242C87.3267 11.9038 87.6538 12.3012 87.847 12.7661C88.0401 13.231 88.0907 13.7426 87.9922 14.2362C87.8937 14.7298 87.6507 15.1831 87.2937 15.539C86.9368 15.8948 86.4821 16.1372 85.987 16.2353C85.4919 16.3335 84.9788 16.2831 84.5124 16.0906C84.0461 15.898 83.6475 15.5718 83.3671 15.1534C83.0866 14.735 82.9369 14.2431 82.9369 13.7398C82.9369 13.065 83.2058 12.4178 83.6845 11.9406C84.1631 11.4635 84.8122 11.1954 85.4891 11.1954V11.1954Z" fill="#DD7631"/>
<path d="M204.64 94.6013L202.752 91.3784L200.863 94.6013C199 97.7981 198.018 101.429 198.018 105.127C198.018 108.824 199 112.455 200.863 115.652L202.752 118.858L204.64 115.652C206.512 112.458 207.498 108.826 207.498 105.127C207.498 101.428 206.512 97.7952 204.64 94.6013V94.6013ZM202.752 107.663C202.247 107.663 201.753 107.513 201.334 107.234C200.914 106.954 200.587 106.557 200.394 106.092C200.201 105.627 200.15 105.115 200.249 104.622C200.347 104.128 200.59 103.675 200.947 103.319C201.304 102.963 201.759 102.721 202.254 102.623C202.749 102.525 203.262 102.575 203.728 102.768C204.195 102.96 204.593 103.286 204.874 103.705C205.154 104.123 205.304 104.615 205.304 105.118C205.304 105.793 205.035 106.44 204.556 106.917C204.078 107.395 203.429 107.663 202.752 107.663V107.663Z" fill="#D8C593"/>
<path d="M187.881 94.6013L186.01 91.3784L184.121 94.6013C182.249 97.7952 181.263 101.428 181.263 105.127C181.263 108.826 182.249 112.458 184.121 115.652L186.01 118.858L187.881 115.652C189.753 112.458 190.739 108.826 190.739 105.127C190.739 101.428 189.753 97.7952 187.881 94.6013V94.6013ZM186.01 107.663C185.502 107.666 185.005 107.518 184.582 107.238C184.159 106.959 183.829 106.559 183.635 106.092C183.441 105.624 183.391 105.109 183.492 104.613C183.593 104.117 183.839 103.662 184.201 103.307C184.562 102.952 185.022 102.712 185.52 102.618C186.019 102.524 186.535 102.581 187.001 102.781C187.468 102.981 187.864 103.315 188.139 103.74C188.413 104.166 188.555 104.663 188.545 105.169C188.531 105.832 188.259 106.464 187.786 106.93C187.312 107.395 186.675 107.658 186.01 107.663V107.663Z" fill="#DD7631"/>
<path d="M152.474 149.272L154.363 146.05C156.235 142.859 157.222 139.229 157.222 135.533C157.222 131.836 156.235 128.206 154.363 125.016L152.474 121.844L150.603 125.067C149.387 127.169 148.541 129.464 148.102 131.852C148.102 132.242 147.983 132.615 147.915 132.988C147.354 137.512 148.298 142.095 150.603 146.033L152.474 149.272ZM152.474 132.988C152.98 132.985 153.475 133.131 153.897 133.409C154.319 133.686 154.649 134.082 154.844 134.547C155.04 135.012 155.093 135.524 154.997 136.018C154.9 136.513 154.658 136.968 154.302 137.326C153.946 137.683 153.491 137.927 152.996 138.027C152.5 138.126 151.986 138.077 151.519 137.885C151.051 137.693 150.652 137.367 150.371 136.948C150.089 136.529 149.939 136.037 149.939 135.533C149.953 134.87 150.225 134.238 150.699 133.772C151.172 133.306 151.809 133.043 152.474 133.039V132.988Z" fill="#D8C593"/>
<path d="M152.474 179.805L154.363 176.583C156.235 173.392 157.221 169.762 157.221 166.066C157.221 162.369 156.235 158.739 154.363 155.549L152.474 152.309L150.603 155.532C149.382 157.632 148.536 159.928 148.102 162.317C148.102 162.707 147.983 163.097 147.914 163.47C147.355 167.995 148.299 172.577 150.603 176.515L152.474 179.805ZM152.474 163.521C152.98 163.518 153.475 163.664 153.897 163.942C154.319 164.219 154.649 164.616 154.844 165.08C155.04 165.545 155.093 166.057 154.997 166.552C154.9 167.046 154.658 167.501 154.302 167.859C153.946 168.216 153.491 168.46 152.996 168.56C152.5 168.659 151.986 168.61 151.519 168.418C151.051 168.226 150.652 167.9 150.371 167.481C150.089 167.062 149.939 166.57 149.939 166.066C149.937 165.732 150.001 165.4 150.127 165.091C150.253 164.781 150.439 164.499 150.675 164.261C150.91 164.024 151.19 163.834 151.499 163.704C151.808 163.574 152.139 163.506 152.474 163.504V163.521Z" fill="#DD7631"/>
<path d="M202.752 179.805L204.64 176.582C206.504 173.389 207.485 169.76 207.485 166.066C207.485 162.371 206.504 158.742 204.64 155.549L202.752 152.326L200.863 155.549C199.64 157.647 198.8 159.944 198.379 162.334C198.379 162.724 198.26 163.114 198.175 163.487C197.615 168.011 198.559 172.594 200.863 176.532L202.752 179.805ZM202.752 163.521C203.256 163.521 203.75 163.67 204.169 163.95C204.589 164.23 204.916 164.627 205.109 165.092C205.303 165.557 205.353 166.068 205.255 166.562C205.156 167.055 204.913 167.509 204.556 167.865C204.199 168.221 203.745 168.463 203.249 168.561C202.754 168.659 202.241 168.609 201.775 168.416C201.309 168.224 200.91 167.898 200.63 167.479C200.349 167.061 200.199 166.569 200.199 166.066C200.197 165.73 200.262 165.397 200.389 165.087C200.516 164.776 200.704 164.493 200.941 164.255C201.178 164.017 201.46 163.828 201.771 163.699C202.082 163.571 202.415 163.504 202.752 163.504V163.521Z" fill="#708160"/>
<path d="M187.881 33.6711L186.01 30.533L184.121 33.6711C182.249 36.8649 181.263 40.4974 181.263 44.1965C181.263 47.8955 182.249 51.528 184.121 54.7219L186.01 57.9448L187.881 54.7219C189.753 51.528 190.739 47.8955 190.739 44.1965C190.739 40.4974 189.753 36.8649 187.881 33.6711V33.6711ZM186.01 46.7324C185.503 46.7358 185.008 46.589 184.585 46.3107C184.163 46.0324 183.833 45.6352 183.638 45.1696C183.443 44.7039 183.391 44.191 183.489 43.6958C183.587 43.2007 183.83 42.7457 184.188 42.3889C184.546 42.032 185.002 41.7893 185.499 41.6917C185.996 41.5941 186.51 41.6459 186.977 41.8406C187.444 42.0352 187.843 42.364 188.122 42.785C188.401 43.206 188.548 43.7003 188.545 44.205C188.54 44.8739 188.272 45.5142 187.797 45.9872C187.323 46.4603 186.681 46.728 186.01 46.7324V46.7324Z" fill="#708160"/>
<path d="M187.881 3.22293L186.01 0L184.121 3.22293C182.249 6.41361 181.262 10.0434 181.262 13.7399C181.262 17.4363 182.249 21.0661 184.121 24.2568L186.01 27.4797L187.881 24.2568C189.753 21.0661 190.74 17.4363 190.74 13.7399C190.74 10.0434 189.753 6.41361 187.881 3.22293V3.22293ZM186.01 16.2843C185.504 16.2876 185.009 16.1413 184.587 15.8637C184.165 15.5862 183.835 15.19 183.64 14.7254C183.444 14.2607 183.391 13.7486 183.487 13.2539C183.584 12.7593 183.826 12.3043 184.182 11.9468C184.538 11.5892 184.993 11.3452 185.488 11.2456C185.984 11.1461 186.498 11.1955 186.965 11.3875C187.433 11.5796 187.832 11.9057 188.113 12.3245C188.395 12.7433 188.545 13.2359 188.545 13.7399C188.545 14.4117 188.278 15.0564 187.803 15.5331C187.328 16.0097 186.683 16.2798 186.01 16.2843V16.2843Z" fill="#DD7631"/>
<path d="M154.38 94.6013L152.474 91.3784L150.603 94.6013C148.731 97.7952 147.745 101.428 147.745 105.127C147.745 108.826 148.731 112.458 150.603 115.652L152.474 118.858L154.363 115.652C156.237 112.46 157.227 108.828 157.23 105.129C157.233 101.43 156.249 97.7967 154.38 94.6013V94.6013ZM152.474 107.663C151.97 107.663 151.476 107.513 151.056 107.234C150.637 106.954 150.31 106.557 150.116 106.092C149.923 105.627 149.873 105.115 149.971 104.622C150.07 104.128 150.313 103.675 150.67 103.319C151.027 102.963 151.481 102.721 151.976 102.623C152.471 102.525 152.985 102.575 153.451 102.768C153.917 102.96 154.316 103.286 154.596 103.705C154.877 104.123 155.026 104.615 155.026 105.118C155.026 105.793 154.758 106.44 154.279 106.917C153.8 107.395 153.151 107.663 152.474 107.663Z" fill="#708160"/>
<path d="M137.638 94.6013L135.766 91.3784L133.878 94.6013C132.006 97.7952 131.02 101.428 131.02 105.127C131.02 108.826 132.006 112.458 133.878 115.652L135.766 118.858L137.638 115.652C139.51 112.458 140.496 108.826 140.496 105.127C140.496 101.428 139.51 97.7952 137.638 94.6013V94.6013ZM135.766 107.663C135.259 107.666 134.762 107.518 134.339 107.238C133.916 106.959 133.586 106.559 133.392 106.092C133.198 105.624 133.148 105.109 133.248 104.613C133.349 104.117 133.596 103.662 133.957 103.307C134.319 102.952 134.778 102.712 135.277 102.618C135.776 102.524 136.291 102.581 136.758 102.781C137.224 102.981 137.62 103.315 137.895 103.74C138.17 104.166 138.312 104.663 138.301 105.169C138.288 105.832 138.016 106.464 137.542 106.93C137.069 107.395 136.431 107.658 135.766 107.663V107.663Z" fill="#DD7631"/>
<path d="M186.01 179.805L187.881 176.582C189.753 173.392 190.74 169.762 190.74 166.066C190.74 162.369 189.753 158.739 187.881 155.549L186.01 152.326L184.121 155.549C182.249 158.739 181.262 162.369 181.262 166.066C181.262 169.762 182.249 173.392 184.121 176.582L186.01 179.805ZM186.01 163.521C186.514 163.521 187.008 163.67 187.427 163.95C187.847 164.23 188.174 164.627 188.367 165.092C188.561 165.557 188.611 166.068 188.513 166.562C188.414 167.055 188.171 167.509 187.814 167.865C187.457 168.221 187.003 168.463 186.507 168.561C186.012 168.659 185.499 168.609 185.033 168.416C184.567 168.224 184.168 167.898 183.888 167.479C183.607 167.061 183.457 166.569 183.457 166.066C183.455 165.73 183.52 165.397 183.647 165.087C183.774 164.776 183.962 164.493 184.199 164.255C184.436 164.017 184.718 163.828 185.029 163.699C185.34 163.571 185.673 163.504 186.01 163.504V163.521Z" fill="#D8C593"/>
<path d="M118.99 30.533L117.119 33.7389C115.247 36.9328 114.26 40.5653 114.26 44.2643C114.26 47.9634 115.247 51.5959 117.119 54.7897L118.99 58.0127L120.879 54.7897C122.751 51.5959 123.737 47.9634 123.737 44.2643C123.737 40.5653 122.751 36.9328 120.879 33.7389L118.99 30.533ZM118.99 46.8003C118.485 46.8003 117.991 46.6506 117.571 46.3702C117.15 46.0899 116.823 45.6915 116.631 45.2256C116.438 44.7597 116.389 44.2472 116.488 43.7532C116.588 43.2592 116.833 42.8058 117.192 42.4507C117.55 42.0955 118.007 41.8545 118.503 41.7583C118.999 41.662 119.513 41.7148 119.979 41.91C120.445 42.1052 120.842 42.434 121.121 42.8546C121.399 43.2753 121.546 43.7689 121.542 44.2728C121.525 44.9342 121.247 45.5624 120.77 46.0222C120.293 46.4821 119.654 46.7371 118.99 46.7324V46.8003Z" fill="#DD7631"/>
<path d="M120.879 3.22293L118.99 0L117.119 3.22293C115.247 6.41361 114.26 10.0434 114.26 13.7399C114.26 17.4363 115.247 21.0661 117.119 24.2568L118.99 27.4797L120.879 24.2568C122.751 21.0661 123.737 17.4363 123.737 13.7399C123.737 10.0434 122.751 6.41361 120.879 3.22293V3.22293ZM118.99 16.2843C118.485 16.2843 117.992 16.135 117.572 15.8555C117.153 15.5759 116.825 15.1785 116.632 14.7136C116.439 14.2486 116.389 13.737 116.487 13.2435C116.585 12.7499 116.829 12.2965 117.185 11.9407C117.542 11.5848 117.997 11.3425 118.492 11.2443C118.987 11.1461 119.5 11.1965 119.967 11.3891C120.433 11.5817 120.832 11.9078 121.112 12.3262C121.393 12.7447 121.542 13.2366 121.542 13.7399C121.542 14.4147 121.273 15.0619 120.795 15.539C120.316 16.0162 119.667 16.2843 118.99 16.2843V16.2843Z" fill="#D8C593"/>
<path d="M137.638 3.22293L135.749 0L133.861 3.22293C131.989 6.41361 131.002 10.0434 131.002 13.7399C131.002 17.4363 131.989 21.0661 133.861 24.2568L135.749 27.4797L137.638 24.2568C139.501 21.0632 140.483 17.4345 140.483 13.7399C140.483 10.0452 139.501 6.4165 137.638 3.22293V3.22293ZM135.749 16.2843C135.245 16.2843 134.751 16.135 134.331 15.8555C133.912 15.5759 133.585 15.1785 133.391 14.7136C133.198 14.2486 133.148 13.737 133.246 13.2435C133.345 12.7499 133.588 12.2965 133.945 11.9407C134.302 11.5848 134.756 11.3425 135.251 11.2443C135.746 11.1461 136.26 11.1965 136.726 11.3891C137.192 11.5817 137.591 11.9078 137.871 12.3262C138.152 12.7447 138.301 13.2366 138.301 13.7399C138.301 14.4147 138.033 15.0619 137.554 15.539C137.075 16.0162 136.426 16.2843 135.749 16.2843V16.2843Z" fill="#DD7631"/>
<path d="M150.62 24.2568L152.474 27.4797L154.363 24.2568C156.235 21.0661 157.221 17.4363 157.221 13.7399C157.221 10.0435 156.235 6.41365 154.363 3.22297L152.644 0.254482L152.474 0.135742L150.62 3.22297C148.748 6.41365 147.761 10.0435 147.761 13.7399C147.761 17.4363 148.748 21.0661 150.62 24.2568V24.2568ZM152.474 11.1955C152.98 11.1921 153.475 11.3385 153.897 11.616C154.319 11.8935 154.649 12.2897 154.844 12.7544C155.04 13.219 155.093 13.7311 154.997 14.2258C154.9 14.7205 154.658 15.1754 154.302 15.533C153.946 15.8905 153.491 16.1345 152.996 16.2341C152.5 16.3337 151.986 16.2843 151.519 16.0922C151.051 15.9001 150.652 15.574 150.371 15.1552C150.089 14.7365 149.939 14.2439 149.939 13.7399C149.939 13.068 150.206 12.4234 150.681 11.9467C151.156 11.47 151.8 11.2 152.474 11.1955V11.1955Z" fill="#708160"/>
<path d="M135.749 30.533L133.861 33.7389C131.989 36.9328 131.003 40.5653 131.003 44.2643C131.003 47.9634 131.989 51.5959 133.861 54.7897L135.749 58.0127L137.638 54.7897C139.501 51.593 140.483 47.9616 140.483 44.2643C140.483 40.5671 139.501 36.9356 137.638 33.7389L135.749 30.533ZM135.749 46.8003C135.244 46.8003 134.75 46.6506 134.33 46.3702C133.91 46.0899 133.583 45.6915 133.39 45.2256C133.197 44.7597 133.148 44.2472 133.248 43.7532C133.347 43.2592 133.592 42.8058 133.951 42.4507C134.309 42.0955 134.766 41.8545 135.262 41.7583C135.758 41.662 136.272 41.7148 136.738 41.91C137.204 42.1052 137.601 42.434 137.88 42.8546C138.158 43.2753 138.305 43.7689 138.302 44.2728C138.279 44.9328 138.001 45.5584 137.525 46.0174C137.048 46.4764 136.412 46.7328 135.749 46.7324V46.8003Z" fill="#708160"/>
<path d="M102.248 57.9448L104.137 54.7219C106 51.5252 106.981 47.8937 106.981 44.1965C106.981 40.4992 106 36.8678 104.137 33.6711L102.248 30.533L100.36 33.7389C98.4879 36.9328 97.5015 40.5653 97.5015 44.2643C97.5015 47.9634 98.4879 51.5959 100.36 54.7897L102.248 57.9448ZM102.248 41.6605C102.753 41.6605 103.246 41.8098 103.666 42.0894C104.086 42.3689 104.413 42.7663 104.606 43.2313C104.799 43.6962 104.85 44.2078 104.751 44.7014C104.653 45.1949 104.41 45.6483 104.053 46.0041C103.696 46.36 103.241 46.6023 102.746 46.7005C102.251 46.7987 101.738 46.7483 101.272 46.5557C100.805 46.3631 100.407 46.037 100.126 45.6186C99.8457 45.2001 99.696 44.7082 99.696 44.205C99.696 43.5301 99.9649 42.883 100.444 42.4058C100.922 41.9286 101.571 41.6605 102.248 41.6605V41.6605Z" fill="#D8C593"/>
<path d="M121.304 84.3389C122.955 81.2112 123.783 77.7166 123.708 74.1828C123.634 70.6491 122.66 67.1921 120.879 64.1363L118.99 60.9303L117.118 64.1363C115.337 67.1938 114.368 70.6539 114.302 74.1892C114.237 77.7245 115.077 81.2179 116.744 84.3389H121.304ZM118.99 72.1257C119.497 72.1224 119.993 72.2697 120.416 72.5487C120.839 72.8278 121.168 73.226 121.363 73.6926C121.558 74.1592 121.609 74.6731 121.51 75.1687C121.41 75.6643 121.165 76.1192 120.805 76.4753C120.446 76.8315 119.988 77.0728 119.49 77.1685C118.992 77.2642 118.477 77.2099 118.011 77.0126C117.544 76.8153 117.147 76.4839 116.87 76.0607C116.593 75.6375 116.448 75.1416 116.455 74.6362C116.464 73.9702 116.734 73.3343 117.208 72.8649C117.682 72.3955 118.322 72.1301 118.99 72.1257V72.1257Z" fill="#708160"/>
<path d="M104.545 84.3389C106.202 81.2136 107.034 77.7193 106.963 74.1849C106.891 70.6506 105.919 67.1925 104.137 64.1363L102.248 60.9303L100.36 64.1363C98.578 67.1921 97.6044 70.6491 97.53 74.1828C97.4556 77.7166 98.2829 81.2112 99.9342 84.3389H104.545ZM102.248 72.1257C102.756 72.119 103.254 72.2634 103.679 72.5404C104.104 72.8174 104.436 73.2144 104.633 73.6807C104.831 74.147 104.884 74.6613 104.787 75.158C104.689 75.6548 104.446 76.1112 104.087 76.4691C103.728 76.827 103.27 77.07 102.772 77.1671C102.273 77.2642 101.757 77.2109 101.29 77.0142C100.822 76.8174 100.424 76.486 100.146 76.0624C99.8681 75.6389 99.7233 75.1423 99.73 74.6362C99.7388 73.9731 100.007 73.3397 100.477 72.8708C100.948 72.4018 101.583 72.1345 102.248 72.1257V72.1257Z" fill="#DD7631"/>
<path d="M171.19 33.6711L169.251 30.533L167.362 33.7389C165.49 36.9328 164.504 40.5653 164.504 44.2643C164.504 47.9634 165.49 51.5959 167.362 54.7897L169.251 58.0127L171.19 54.7219C173.062 51.528 174.048 47.8955 174.048 44.1965C174.048 40.4974 173.062 36.8649 171.19 33.6711V33.6711ZM169.302 46.7324C168.796 46.7324 168.302 46.5827 167.882 46.3024C167.462 46.0221 167.135 45.6237 166.942 45.1577C166.75 44.6918 166.7 44.1794 166.8 43.6853C166.9 43.1913 167.144 42.738 167.503 42.3828C167.862 42.0277 168.318 41.7867 168.814 41.6904C169.31 41.5942 169.824 41.647 170.29 41.8422C170.756 42.0374 171.154 42.3661 171.432 42.7868C171.71 43.2074 171.857 43.701 171.854 44.205C171.852 44.542 171.782 44.8752 171.65 45.1853C171.517 45.4954 171.324 45.7762 171.082 46.0113C170.84 46.2465 170.553 46.4313 170.239 46.5551C169.925 46.6789 169.589 46.7392 169.251 46.7324H169.302Z" fill="#DD7631"/>
<path d="M171.19 64.1363L169.302 60.9303L167.413 64.1363C165.541 67.3301 164.555 70.9626 164.555 74.6617C164.555 78.3607 165.541 81.9932 167.413 85.1871L169.302 88.393L171.19 85.1871C173.062 81.9932 174.048 78.3607 174.048 74.6617C174.048 70.9626 173.062 67.3301 171.19 64.1363V64.1363ZM169.302 77.1976C168.796 77.2077 168.298 77.0675 167.872 76.7949C167.446 76.5222 167.111 76.1295 166.909 75.6665C166.708 75.2036 166.649 74.6913 166.74 74.1949C166.832 73.6986 167.069 73.2404 167.422 72.8788C167.775 72.5172 168.228 72.2685 168.723 72.1642C169.219 72.0599 169.734 72.1048 170.203 72.2932C170.673 72.4816 171.076 72.8049 171.361 73.2222C171.645 73.6394 171.799 74.1316 171.803 74.6362C171.805 74.9718 171.741 75.3045 171.613 75.6151C171.486 75.9258 171.298 76.2083 171.061 76.4464C170.824 76.6844 170.542 76.8734 170.231 77.0023C169.92 77.1312 169.587 77.1976 169.251 77.1976H169.302Z" fill="#708160"/>
<path d="M169.251 121.844L167.362 125.067C165.49 128.257 164.503 131.887 164.503 135.583C164.503 139.28 165.49 142.91 167.362 146.1L169.251 149.272L171.19 146.1C173.062 142.91 174.049 139.28 174.049 135.583C174.049 131.887 173.062 128.257 171.19 125.067L169.251 121.844ZM169.251 138.128C168.746 138.128 168.252 137.979 167.833 137.699C167.413 137.42 167.086 137.022 166.893 136.557C166.7 136.092 166.649 135.581 166.747 135.087C166.846 134.594 167.089 134.14 167.446 133.784C167.803 133.428 168.258 133.186 168.753 133.088C169.248 132.99 169.761 133.04 170.227 133.233C170.694 133.425 171.092 133.751 171.373 134.17C171.653 134.588 171.803 135.08 171.803 135.583C171.803 136.258 171.534 136.905 171.055 137.383C170.577 137.86 169.927 138.128 169.251 138.128V138.128Z" fill="#DD7631"/>
<path d="M169.251 179.805L171.139 176.582C173.011 173.392 173.998 169.762 173.998 166.066C173.998 162.369 173.011 158.739 171.139 155.549L169.251 152.326L167.362 155.549C165.49 158.739 164.503 162.369 164.503 166.066C164.503 169.762 165.49 173.392 167.362 176.582L169.251 179.805ZM169.251 163.521C169.755 163.521 170.249 163.67 170.668 163.95C171.088 164.23 171.415 164.627 171.608 165.092C171.802 165.557 171.852 166.068 171.754 166.562C171.655 167.055 171.412 167.509 171.055 167.865C170.698 168.221 170.244 168.463 169.748 168.561C169.253 168.659 168.74 168.609 168.274 168.416C167.808 168.224 167.409 167.898 167.129 167.479C166.848 167.061 166.698 166.569 166.698 166.066C166.696 165.73 166.761 165.397 166.888 165.087C167.015 164.776 167.203 164.493 167.44 164.255C167.677 164.017 167.959 163.828 168.27 163.699C168.581 163.571 168.914 163.504 169.251 163.504V163.521Z" fill="#708160"/>
<path d="M186.01 211L187.881 207.777C189.753 204.586 190.74 200.957 190.74 197.26C190.74 193.564 189.753 189.934 187.881 186.743L186.01 183.52L184.121 186.743C182.249 189.934 181.262 193.564 181.262 197.26C181.262 200.957 182.249 204.586 184.121 207.777L186.01 211ZM186.01 194.716C186.514 194.716 187.008 194.865 187.427 195.145C187.847 195.424 188.174 195.821 188.367 196.286C188.561 196.751 188.611 197.263 188.513 197.756C188.414 198.25 188.171 198.703 187.814 199.059C187.457 199.415 187.003 199.657 186.507 199.756C186.012 199.854 185.499 199.803 185.033 199.611C184.567 199.418 184.168 199.092 183.888 198.674C183.607 198.255 183.457 197.763 183.457 197.26C183.457 196.585 183.726 195.938 184.205 195.461C184.684 194.984 185.333 194.716 186.01 194.716V194.716Z" fill="#DD7631"/>
<path d="M169.251 211L171.139 207.777C173.011 204.586 173.998 200.957 173.998 197.26C173.998 193.564 173.011 189.934 171.139 186.743L169.251 183.52L167.362 186.743C165.49 189.934 164.503 193.564 164.503 197.26C164.503 200.957 165.49 204.586 167.362 207.777L169.251 211ZM169.251 194.716C169.755 194.716 170.249 194.865 170.668 195.145C171.088 195.424 171.415 195.821 171.608 196.286C171.802 196.751 171.852 197.263 171.754 197.756C171.655 198.25 171.412 198.703 171.055 199.059C170.698 199.415 170.244 199.657 169.748 199.756C169.253 199.854 168.74 199.803 168.274 199.611C167.808 199.418 167.409 199.092 167.129 198.674C166.848 198.255 166.698 197.763 166.698 197.26C166.698 196.585 166.967 195.938 167.446 195.461C167.925 194.984 168.574 194.716 169.251 194.716V194.716Z" fill="#D8C593"/>
<path d="M171.19 94.6013L169.302 91.3784L167.413 94.6013C165.541 97.7952 164.555 101.428 164.555 105.127C164.555 108.826 165.541 112.458 167.413 115.652L169.302 118.858L171.19 115.652C173.062 112.458 174.048 108.826 174.048 105.127C174.048 101.428 173.062 97.7952 171.19 94.6013V94.6013ZM169.302 107.663C168.797 107.663 168.303 107.513 167.884 107.234C167.464 106.954 167.137 106.557 166.944 106.092C166.751 105.627 166.7 105.115 166.799 104.622C166.897 104.128 167.14 103.675 167.497 103.319C167.854 102.963 168.309 102.721 168.804 102.623C169.299 102.525 169.812 102.575 170.278 102.768C170.745 102.96 171.143 103.286 171.424 103.705C171.704 104.123 171.854 104.615 171.854 105.118C171.854 105.457 171.786 105.792 171.655 106.104C171.523 106.416 171.331 106.699 171.088 106.936C170.846 107.173 170.558 107.359 170.243 107.484C169.927 107.609 169.59 107.669 169.251 107.663H169.302Z" fill="#D8C593"/>
<path d="M169.251 0L167.362 3.22293C165.49 6.41361 164.503 10.0434 164.503 13.7399C164.503 17.4363 165.49 21.0661 167.362 24.2568L169.251 27.4797L171.19 24.2568C173.062 21.0661 174.049 17.4363 174.049 13.7399C174.049 10.0434 173.062 6.41361 171.19 3.22293L169.251 0ZM169.251 16.2843C168.746 16.2843 168.252 16.135 167.833 15.8555C167.413 15.5759 167.086 15.1785 166.893 14.7136C166.7 14.2486 166.649 13.737 166.747 13.2435C166.846 12.7499 167.089 12.2965 167.446 11.9407C167.803 11.5848 168.258 11.3425 168.753 11.2443C169.248 11.1461 169.761 11.1965 170.227 11.3891C170.694 11.5817 171.092 11.9078 171.373 12.3262C171.653 12.7447 171.803 13.2366 171.803 13.7399C171.803 14.4147 171.534 15.0619 171.055 15.539C170.577 16.0162 169.927 16.2843 169.251 16.2843V16.2843Z" fill="#D8C593"/>
<path d="M186.01 121.844L184.121 125.067C182.249 128.257 181.262 131.887 181.262 135.583C181.262 139.28 182.249 142.91 184.121 146.1L186.01 149.272L187.881 146.05C189.753 142.859 190.74 139.229 190.74 135.533C190.74 131.836 189.753 128.206 187.881 125.016L186.01 121.844ZM186.01 138.128C185.504 138.131 185.009 137.985 184.587 137.707C184.165 137.43 183.835 137.034 183.64 136.569C183.444 136.104 183.391 135.592 183.487 135.098C183.584 134.603 183.826 134.148 184.182 133.79C184.538 133.433 184.993 133.189 185.488 133.089C185.984 132.99 186.498 133.039 186.965 133.231C187.433 133.423 187.832 133.749 188.113 134.168C188.395 134.587 188.545 135.08 188.545 135.583C188.545 136.255 188.278 136.9 187.803 137.377C187.328 137.853 186.683 138.123 186.01 138.128Z" fill="#708160"/>
<path d="M187.881 64.1363L186.01 60.9303L184.121 64.1363C182.249 67.3301 181.263 70.9626 181.263 74.6617C181.263 78.3607 182.249 81.9932 184.121 85.1871L186.01 88.393L187.881 85.1871C189.753 81.9932 190.739 78.3607 190.739 74.6617C190.739 70.9626 189.753 67.3301 187.881 64.1363V64.1363ZM186.01 77.1976C185.505 77.2009 185.01 77.055 184.589 76.7782C184.167 76.5014 183.838 76.1062 183.641 75.6426C183.445 75.1789 183.391 74.6677 183.486 74.1735C183.581 73.6793 183.822 73.2243 184.176 72.8661C184.531 72.5079 184.984 72.2626 185.478 72.1611C185.973 72.0596 186.486 72.1066 186.954 72.2961C187.421 72.4855 187.822 72.809 188.105 73.2255C188.388 73.6421 188.541 74.133 188.545 74.6362C188.547 74.9704 188.483 75.3017 188.357 75.6112C188.231 75.9208 188.045 76.2025 187.809 76.4404C187.574 76.6782 187.294 76.8675 186.985 76.9974C186.676 77.1274 186.345 77.1954 186.01 77.1976V77.1976Z" fill="#D8C593"/>
<path d="M154.38 33.6711L152.474 30.533L150.603 33.7389C148.731 36.9328 147.745 40.5653 147.745 44.2643C147.745 47.9634 148.731 51.5959 150.603 54.7897L152.474 58.0127L154.363 54.7897C156.25 51.5894 157.246 47.9451 157.249 44.2327C157.252 40.5203 156.262 36.8744 154.38 33.6711V33.6711ZM152.474 46.7324C151.969 46.7324 151.475 46.5827 151.055 46.3024C150.635 46.0221 150.308 45.6237 150.115 45.1577C149.922 44.6918 149.873 44.1794 149.973 43.6853C150.072 43.1913 150.317 42.738 150.676 42.3828C151.034 42.0277 151.491 41.7867 151.987 41.6904C152.483 41.5942 152.997 41.647 153.463 41.8422C153.929 42.0374 154.326 42.3661 154.605 42.7868C154.883 43.2074 155.03 43.701 155.026 44.205C155.026 44.5383 154.96 44.8684 154.832 45.1761C154.703 45.4839 154.515 45.7632 154.278 45.9982C154.041 46.2331 153.759 46.4189 153.45 46.5449C153.14 46.6709 152.809 46.7346 152.474 46.7324Z" fill="#D8C593"/>
<path d="M154.38 64.1363L152.474 60.9303L150.603 64.1363C148.731 67.3301 147.745 70.9626 147.745 74.6617C147.745 78.3607 148.731 81.9932 150.603 85.1871L152.474 88.393L154.363 85.1871C156.237 81.9947 157.227 78.363 157.23 74.664C157.233 70.9649 156.249 67.3316 154.38 64.1363V64.1363ZM152.474 77.1976C151.971 77.1942 151.48 77.0426 151.063 76.7617C150.646 76.4809 150.321 76.0833 150.13 75.6191C149.939 75.1549 149.89 74.6447 149.989 74.1527C150.088 73.6607 150.331 73.2089 150.687 72.8541C151.043 72.4993 151.496 72.2573 151.989 72.1586C152.483 72.0598 152.995 72.1088 153.46 72.2993C153.926 72.4897 154.325 72.8132 154.606 73.229C154.888 73.6449 155.04 74.1344 155.043 74.6362C155.048 74.9739 154.985 75.309 154.857 75.6218C154.73 75.9346 154.541 76.2188 154.301 76.4576C154.062 76.6963 153.777 76.8848 153.463 77.0119C153.149 77.139 152.813 77.2022 152.474 77.1976Z" fill="#DD7631"/>
<path d="M137.638 64.1363L135.766 60.9303L133.878 64.1363C132.006 67.3301 131.02 70.9626 131.02 74.6617C131.02 78.3607 132.006 81.9932 133.878 85.1871L135.766 88.393L137.638 85.1871C139.51 81.9932 140.496 78.3607 140.496 74.6617C140.496 70.9626 139.51 67.3301 137.638 64.1363V64.1363ZM135.766 77.1976C135.261 77.2009 134.767 77.055 134.346 76.7782C133.924 76.5014 133.594 76.1062 133.398 75.6426C133.202 75.1789 133.148 74.6677 133.243 74.1735C133.338 73.6793 133.578 73.2243 133.933 72.8661C134.287 72.5079 134.74 72.2626 135.235 72.1611C135.729 72.0596 136.243 72.1066 136.71 72.2961C137.178 72.4855 137.579 72.809 137.862 73.2255C138.145 73.6421 138.298 74.133 138.301 74.6362C138.304 74.9704 138.24 75.3017 138.114 75.6112C137.987 75.9208 137.801 76.2025 137.566 76.4404C137.331 76.6782 137.05 76.8675 136.742 76.9974C136.433 77.1274 136.101 77.1954 135.766 77.1976V77.1976Z" fill="#D8C593"/>
<path d="M222.046 44.205C222.046 44.8798 221.777 45.527 221.298 46.0041C220.82 46.4813 220.171 46.7494 219.494 46.7494C218.817 46.7494 218.168 46.4813 217.689 46.0041C217.21 45.527 216.942 44.8798 216.942 44.205H214.781C214.776 47.8998 215.756 51.5295 217.622 54.7219L219.511 57.9448L221.382 54.7219C223.175 51.6532 224.153 48.1795 224.224 44.629L223.815 44.205H222.046Z" fill="#708160"/>
<path d="M65.8545 22.4078C66.148 23.0947 66.4832 23.7632 66.8583 24.4094L68.7469 27.6323L70.6185 24.4094C72.3258 21.473 73.2894 18.1659 73.4259 14.7745C70.6514 17.0591 68.1149 19.6164 65.8545 22.4078V22.4078Z" fill="#D8C593"/>
</g>
</svg>
